<svg width="20" height="20" viewBox="0 0 20 20" fill="none" xmlns="http://www.w3.org/2000/svg">
<path d="M15.5729 0V7.76042H13.3333V0H15.5729ZM18.9062 13.9062C19.184 13.9062 19.4358 14.0104 19.6615 14.2188C19.8872 14.4271 20 14.6875 20 15V18.9062C20 19.184 19.8872 19.4358 19.6615 19.6615C19.4358 19.8872 19.184 20 18.9062 20C15.4688 20 12.3003 19.158 9.40104 17.474C6.50174 15.7899 4.21007 13.4983 2.52604 10.599C0.842014 7.69965 0 4.53125 0 1.09375C0 0.815972 0.112847 0.564236 0.338542 0.338542C0.564236 0.112847 0.815972 0 1.09375 0H5C5.3125 0 5.57292 0.112847 5.78125 0.338542C5.98958 0.564236 6.09375 0.815972 6.09375 1.09375C6.09375 2.48264 6.30208 3.80208 6.71875 5.05208C6.85764 5.50347 6.77083 5.88542 6.45833 6.19792L4.01042 8.64583C5.64236 11.875 8.09028 14.3229 11.3542 15.9896L13.8021 13.5417C14.1146 13.2292 14.4965 13.1424 14.9479 13.2812C16.1979 13.6979 17.5174 13.9062 18.9062 13.9062ZM17.7604 0H20V7.76042H17.7604V0Z" fill="#00B9E3"/>
</svg>
