<svg width="71" height="71" viewBox="0 0 71 71" fill="none" xmlns="http://www.w3.org/2000/svg">
<path d="M35.4998 0C28.4786 0 21.6151 2.08203 15.7772 5.98279C9.93927 9.88356 5.38917 15.4279 2.70228 21.9146C0.0153814 28.4013 -0.687633 35.5392 0.682134 42.4254C2.0519 49.3117 5.43293 55.6372 10.3977 60.6019C15.3624 65.5667 21.6879 68.9477 28.5741 70.3175C35.4604 71.6872 42.5982 70.9842 49.085 68.2973C55.5717 65.6104 61.116 61.0603 65.0168 55.2224C68.9176 49.3845 70.9996 42.521 70.9996 35.4998C70.9996 26.0847 67.2594 17.0551 60.6019 10.3976C53.9444 3.74015 44.9149 0 35.4998 0ZM58.6856 23.5852L29.5314 52.7172L12.314 35.4998C11.7256 34.9113 11.395 34.1132 11.395 33.281C11.395 32.4489 11.7256 31.6508 12.314 31.0623C12.9024 30.4739 13.7006 30.1433 14.5327 30.1433C15.3649 30.1433 16.163 30.4739 16.7515 31.0623L29.5758 43.8866L54.2925 19.1921C54.5839 18.9007 54.9298 18.6696 55.3105 18.5119C55.6912 18.3542 56.0992 18.273 56.5112 18.273C56.9233 18.273 57.3313 18.3542 57.712 18.5119C58.0927 18.6696 58.4386 18.9007 58.73 19.1921C59.0213 19.4834 59.2525 19.8293 59.4102 20.21C59.5678 20.5907 59.649 20.9987 59.649 21.4108C59.649 21.8229 59.5678 22.2309 59.4102 22.6116C59.2525 22.9923 59.0213 23.3382 58.73 23.6295L58.6856 23.5852Z" fill="#43A047"/>
</svg>
