<svg width="328" height="48" viewBox="0 0 328 48" fill="none" xmlns="http://www.w3.org/2000/svg">
<path fill-rule="evenodd" clip-rule="evenodd" d="M0 4C0 1.79086 1.79086 0 4 0H11H317H324C326.209 0 328 1.79086 328 4V44C328 46.2091 326.209 48 324 48H4C1.79086 48 0 46.2091 0 44V4ZM317 0.857143H11H4.5C2.567 0.857143 1 2.42414 1 4.35714V43.6429C1 45.5759 2.60031 47.1429 4.5333 47.1429H323.467C325.4 47.1429 327 45.5759 327 43.6429V4.35714C327 2.42415 325.433 0.857143 323.5 0.857143H317Z" fill="#B0B0B0"/>
</svg>
