<svg width="17" height="17" viewBox="0 0 17 17" fill="none" xmlns="http://www.w3.org/2000/svg">
<path d="M0.792232 2.68617L2.98944 0.49102C3.14443 0.335345 3.32866 0.211827 3.53153 0.127563C3.7344 0.0432983 3.95192 -5.26497e-05 4.1716 4.79869e-08C4.6193 4.79869e-08 5.04017 0.175364 5.35582 0.49102L7.72014 2.85534C7.87582 3.01033 7.99934 3.19456 8.0836 3.39743C8.16787 3.6003 8.21122 3.81782 8.21116 4.0375C8.21116 4.48519 8.0358 4.90607 7.72014 5.22172L5.99126 6.95061C6.39595 7.84261 6.95861 8.65409 7.65206 9.34587C8.34378 10.041 9.15518 10.6057 10.0473 11.0129L11.7762 9.28398C11.9312 9.12831 12.1154 9.00479 12.3183 8.92052C12.5212 8.83626 12.7387 8.79291 12.9584 8.79296C13.4061 8.79296 13.8269 8.96833 14.1426 9.28398L16.509 11.6462C16.6648 11.8015 16.7885 11.9861 16.8727 12.1893C16.957 12.3926 17.0003 12.6104 17 12.8305C17 13.2782 16.8246 13.699 16.509 14.0147L14.3159 16.2078C13.8125 16.7132 13.1172 17 12.4034 17C12.2528 17 12.1084 16.9876 11.966 16.9629C9.18495 16.5049 6.42658 15.0256 4.20048 12.8016C1.97645 10.5796 0.499271 7.8233 0.0350728 5.03398C-0.10522 4.18192 0.177426 3.3051 0.792232 2.68617Z" fill="#00B9E3"/>
</svg>
