<svg width="27" height="35" viewBox="0 0 27 35" fill="none" xmlns="http://www.w3.org/2000/svg">
<path d="M24.2973 4.07845L13.4471 0.106445L2.71609 4.01887C1.34575 4.68088 0.1409 5.08469 0.1409 6.39546V12.9228C0.11953 17.4937 1.34395 21.9839 3.68261 25.9113C5.98575 29.8381 9.43769 32.9643 13.5729 34.8681C17.962 33.4051 21.2389 29.5059 23.2447 26.1694C25.5846 22.2402 26.809 17.7474 26.7864 13.1743V7.30902C26.8415 6.55865 26.6181 5.8143 26.1589 5.21831C25.6997 4.62231 25.0369 4.21649 24.2973 4.07845Z" fill="#EBEBEB"/>
<path d="M24.2963 4.07793C24.5248 4.1305 24.7468 4.20821 24.9583 4.30963C25.6201 4.57331 26.1604 5.07348 26.4743 5.71307C26.6888 6.18028 26.7995 6.68846 26.7986 7.20258C26.7986 7.75866 26.7986 8.36107 26.7986 9.01645C26.7986 10.3405 26.7986 11.8101 26.7986 13.4651C26.7835 17.4266 25.8379 21.3291 24.0381 24.8582C22.9592 26.9739 21.5986 28.9336 19.9933 30.6838C18.2414 32.6208 16.0443 34.1022 13.5917 35H13.5454H13.4924C9.92988 33.3694 6.8641 30.8222 4.60835 27.6187C1.93673 23.8472 0.364587 19.408 0.067031 14.7957C-0.0124091 13.71 0.00082687 12.6376 0.00082687 11.585V8.50672C0.00082687 7.99698 0.00082687 7.49386 0.00082687 6.99736C0.00082687 6.7458 0.00082687 6.50747 0.00082687 6.24929C0.0188125 5.98413 0.095703 5.72631 0.225905 5.49461C0.516497 5.07164 0.92027 4.73899 1.39103 4.53471C1.81471 4.30301 2.25163 4.11766 2.66869 3.91906L13.4262 0H13.4858L21.4629 2.97901L23.5813 3.78665L24.1241 3.99849L24.3095 4.08456L24.1175 4.02497L23.5681 3.83299L21.4298 3.07169L13.4262 0.1655H13.4858L2.75475 4.13751C2.33769 4.34273 1.90077 4.53471 1.49033 4.75979C1.06978 4.94941 0.710009 5.2519 0.450983 5.63364C0.261016 6.06609 0.192369 6.54209 0.25239 7.0106V8.51995C0.25239 9.53281 0.25239 10.5655 0.25239 11.6115C0.25239 12.6575 0.252401 13.7299 0.325221 14.8024C0.632844 19.3563 2.19301 23.7367 4.83344 27.4598C7.06566 30.6166 10.0914 33.1285 13.605 34.7418H13.5056C15.9203 33.8574 18.0849 32.4014 19.8145 30.4984C21.43 28.7671 22.804 26.8253 23.8991 24.7257C25.6838 21.2403 26.6335 17.3874 26.6728 13.4717C26.6728 11.8167 26.6728 10.3272 26.6728 9.02308C26.6728 7.71894 26.7986 6.57368 26.3816 5.75942C26.0849 5.13099 25.5695 4.6321 24.9318 4.35597C24.7199 4.25667 24.5544 4.19047 24.4419 4.15075L24.2963 4.07793Z" fill="#263238"/>
<path d="M21.0177 21.5876H18.7404V9.18168C18.7404 7.77709 18.1824 6.43004 17.1892 5.43685C16.196 4.44365 14.849 3.88568 13.4444 3.88568C12.0398 3.88568 10.6927 4.44365 9.69954 5.43685C8.70634 6.43004 8.14838 7.77709 8.14838 9.18168V21.5876H5.87109V9.18168C5.87109 7.17312 6.669 5.24683 8.08927 3.82656C9.50953 2.40629 11.4358 1.6084 13.4444 1.6084C15.4529 1.6084 17.3793 2.40629 18.7995 3.82656C20.2198 5.24683 21.0177 7.17312 21.0177 9.18168V21.5876Z" fill="#455A64"/>
<g opacity="0.4">
<path opacity="0.4" d="M21.0177 21.5876H18.7404V9.18168C18.7404 7.77709 18.1824 6.43004 17.1892 5.43685C16.196 4.44365 14.849 3.88568 13.4444 3.88568C12.0398 3.88568 10.6927 4.44365 9.69954 5.43685C8.70634 6.43004 8.14838 7.77709 8.14838 9.18168V21.5876H5.87109V9.18168C5.87109 7.17312 6.669 5.24683 8.08927 3.82656C9.50953 2.40629 11.4358 1.6084 13.4444 1.6084C15.4529 1.6084 17.3793 2.40629 18.7995 3.82656C20.2198 5.24683 21.0177 7.17312 21.0177 9.18168V21.5876Z" fill="black"/>
</g>
<path d="M21.4036 16.0664H5.48245C4.24303 16.0664 3.23828 17.0712 3.23828 18.3106V26.9166C3.23828 28.156 4.24303 29.1608 5.48245 29.1608H21.4036C22.643 29.1608 23.6478 28.156 23.6478 26.9166V18.3106C23.6478 17.0712 22.643 16.0664 21.4036 16.0664Z" fill="#00B9E3"/>
<g opacity="0.5">
<path opacity="0.5" d="M15.1463 20.9128C15.1492 20.5943 15.0629 20.2813 14.8973 20.0093C14.7317 19.7372 14.4933 19.5169 14.2091 19.3732C13.9249 19.2295 13.6061 19.1681 13.2889 19.196C12.9716 19.2239 12.6684 19.3399 12.4137 19.531C12.1589 19.7221 11.9626 19.9807 11.847 20.2774C11.7314 20.5742 11.701 20.8974 11.7594 21.2105C11.8178 21.5236 11.9626 21.8141 12.1774 22.0493C12.3922 22.2844 12.6684 22.4549 12.975 22.5413V25.0966H13.9084V22.5413C14.264 22.4418 14.5773 22.2288 14.8008 21.9349C15.0242 21.6409 15.1456 21.282 15.1463 20.9128Z" fill="black"/>
</g>
<path d="M4.32162 27.9229C4.27528 27.9229 4.24219 25.7383 4.24219 23.044C4.24219 20.3496 4.27528 18.165 4.32162 18.165C4.36796 18.165 4.40769 20.3496 4.40769 23.044C4.40769 25.7383 4.36796 27.9229 4.32162 27.9229Z" fill="#FAFAFA"/>
<path d="M12.1072 23.0972C12.0337 23.0742 11.966 23.0358 11.9086 22.9846C11.7366 22.8605 11.5866 22.7083 11.465 22.5345C11.2535 22.253 11.1066 21.9283 11.0347 21.5836C10.9629 21.2388 10.968 20.8825 11.0495 20.5399C11.131 20.1974 11.2871 19.877 11.5065 19.6016C11.7259 19.3261 12.0033 19.1025 12.319 18.9464C12.5049 18.8508 12.7032 18.7818 12.9082 18.7412C13.0538 18.7412 13.1399 18.7412 13.1399 18.7412C12.8744 18.8225 12.6172 18.9289 12.372 19.059C12.0834 19.2196 11.8314 19.4386 11.6322 19.702C11.4329 19.9654 11.2908 20.2674 11.2148 20.5888C11.1388 20.9102 11.1307 21.244 11.1908 21.5687C11.251 21.8934 11.3782 22.2021 11.5643 22.4749C11.727 22.6976 11.9086 22.9058 12.1072 23.0972Z" fill="#FAFAFA"/>
</svg>
