<svg width="19" height="19" viewBox="0 0 19 19" fill="none" xmlns="http://www.w3.org/2000/svg">
<path d="M18.4062 19H0.59375C0.432943 19 0.293783 18.9412 0.17627 18.8237C0.0587565 18.7062 0 18.5671 0 18.4062C0 18.2454 0.0587565 18.1063 0.17627 17.9888C0.293783 17.8713 0.432943 17.8125 0.59375 17.8125H1.1875V10.6875C1.1875 10.0319 1.41943 9.47217 1.8833 9.0083C2.34717 8.54443 2.9069 8.3125 3.5625 8.3125H15.4375C16.0931 8.3125 16.6528 8.54443 17.1167 9.0083C17.5806 9.47217 17.8125 10.0319 17.8125 10.6875V17.8125H18.4062C18.5671 17.8125 18.7062 17.8713 18.8237 17.9888C18.9412 18.1063 19 18.2454 19 18.4062C19 18.5671 18.9412 18.7062 18.8237 18.8237C18.7062 18.9412 18.5671 19 18.4062 19ZM14.8438 3.5625C15.0046 3.5625 15.1437 3.62126 15.2612 3.73877C15.3787 3.85628 15.4375 3.99544 15.4375 4.15625V7.125H13.0625V4.15625C13.0625 3.99544 13.1213 3.85628 13.2388 3.73877C13.3563 3.62126 13.4954 3.5625 13.6562 3.5625H14.8438ZM14.4541 2.96875C14.7139 2.73372 14.8438 2.48633 14.8438 2.22656C14.8438 2.13997 14.7974 2.01937 14.7046 1.86475C14.6118 1.71012 14.5221 1.57715 14.4355 1.46582L14.3057 1.29883C14.2191 1.75651 14.0335 2.06576 13.749 2.22656C13.6624 2.30078 13.6346 2.40902 13.6655 2.55127C13.6965 2.69352 13.7614 2.83268 13.8604 2.96875C13.749 2.96875 13.5635 2.85742 13.3037 2.63477C13.1429 2.48633 13.0625 2.31934 13.0625 2.13379C13.0625 1.86165 13.1986 1.61426 13.4707 1.3916C13.5944 1.28027 13.6748 1.11019 13.7119 0.881348C13.749 0.652507 13.749 0.445312 13.7119 0.259766L13.6562 0C14.2995 0.247396 14.7757 0.58138 15.085 1.00195C15.3324 1.34831 15.4499 1.69466 15.4375 2.04102C15.4251 2.42448 15.3942 2.64095 15.3447 2.69043C15.2581 2.76465 15.119 2.82959 14.9272 2.88525C14.7355 2.94092 14.5778 2.96875 14.4541 2.96875ZM10.0938 3.5625C10.2546 3.5625 10.3937 3.62126 10.5112 3.73877C10.6287 3.85628 10.6875 3.99544 10.6875 4.15625V7.125H8.3125V4.15625C8.3125 3.99544 8.37126 3.85628 8.48877 3.73877C8.60628 3.62126 8.74544 3.5625 8.90625 3.5625H10.0938ZM9.7041 2.96875C9.96387 2.73372 10.0938 2.48633 10.0938 2.22656C10.0938 2.13997 10.0474 2.01937 9.95459 1.86475C9.86182 1.71012 9.77214 1.57715 9.68555 1.46582L9.55566 1.29883C9.46908 1.75651 9.28353 2.06576 8.99902 2.22656C8.91243 2.30078 8.8846 2.40902 8.91553 2.55127C8.94645 2.69352 9.01139 2.83268 9.11035 2.96875C8.99902 2.96875 8.81348 2.85742 8.55371 2.63477C8.3929 2.48633 8.3125 2.31934 8.3125 2.13379C8.3125 1.86165 8.44857 1.61426 8.7207 1.3916C8.8444 1.28027 8.9248 1.11019 8.96191 0.881348C8.99902 0.652507 8.99902 0.445312 8.96191 0.259766L8.90625 0C9.54948 0.247396 10.0257 0.58138 10.335 1.00195C10.5824 1.34831 10.6999 1.69466 10.6875 2.04102C10.6751 2.42448 10.6442 2.64095 10.5947 2.69043C10.5081 2.76465 10.369 2.82959 10.1772 2.88525C9.98551 2.94092 9.8278 2.96875 9.7041 2.96875ZM5.34375 3.5625C5.50456 3.5625 5.64372 3.62126 5.76123 3.73877C5.87874 3.85628 5.9375 3.99544 5.9375 4.15625V7.125H3.5625V4.15625C3.5625 3.99544 3.62126 3.85628 3.73877 3.73877C3.85628 3.62126 3.99544 3.5625 4.15625 3.5625H5.34375ZM4.9541 2.96875C5.21387 2.73372 5.34375 2.48633 5.34375 2.22656C5.34375 2.13997 5.29736 2.01937 5.20459 1.86475C5.11182 1.71012 5.02214 1.57715 4.93555 1.46582L4.80566 1.29883C4.71908 1.75651 4.53353 2.06576 4.24902 2.22656C4.16244 2.30078 4.1346 2.40902 4.16553 2.55127C4.19645 2.69352 4.26139 2.83268 4.36035 2.96875C4.24902 2.96875 4.06348 2.85742 3.80371 2.63477C3.6429 2.48633 3.5625 2.31934 3.5625 2.13379C3.5625 1.86165 3.69857 1.61426 3.9707 1.3916C4.0944 1.28027 4.17171 1.11019 4.20264 0.881348C4.23356 0.652507 4.23665 0.445312 4.21191 0.259766L4.15625 0C4.79948 0.247396 5.27572 0.58138 5.58496 1.00195C5.83236 1.34831 5.94987 1.69466 5.9375 2.04102C5.92513 2.42448 5.89421 2.64095 5.84473 2.69043C5.75814 2.76465 5.61898 2.82959 5.42725 2.88525C5.23551 2.94092 5.0778 2.96875 4.9541 2.96875Z" fill="#00B9E3"/>
</svg>
