<svg width="86" height="86" viewBox="0 0 86 86" fill="none" xmlns="http://www.w3.org/2000/svg">
<path d="M53.4947 30.283L42.6044 26.2963L31.8336 30.2232C30.4582 30.8876 29.2488 31.293 29.2488 32.6086V39.1601C29.2274 43.7479 30.4564 48.2548 32.8037 52.1967C35.1153 56.1381 38.5801 59.2758 42.7306 61.1867C47.1359 59.7183 50.425 55.8046 52.4383 52.4558C54.7868 48.512 56.0157 44.0026 55.9931 39.4126V33.5255C56.0484 32.7724 55.8242 32.0253 55.3633 31.4271C54.9023 30.8289 54.2371 30.4215 53.4947 30.283Z" fill="#EBEBEB"/>
<path d="M53.4937 30.2825C53.7231 30.3352 53.9459 30.4132 54.1581 30.515C54.8224 30.7797 55.3647 31.2817 55.6797 31.9237C55.8951 32.3926 56.0062 32.9027 56.0053 33.4187C56.0053 33.9768 56.0053 34.5815 56.0053 35.2393C56.0053 36.5682 56.0053 38.0433 56.0053 39.7044C55.9902 43.6806 55.0411 47.5976 53.2345 51.1397C52.1517 53.2632 50.786 55.2302 49.1747 56.9868C47.4164 58.9311 45.2111 60.418 42.7495 61.3191H42.703H42.6498C39.0741 59.6824 35.9969 57.1258 33.7328 53.9104C31.0513 50.1249 29.4734 45.6693 29.1747 41.04C29.095 39.9503 29.1083 38.8738 29.1083 37.8174V34.7277C29.1083 34.216 29.1083 33.711 29.1083 33.2127C29.1083 32.9602 29.1083 32.721 29.1083 32.4619C29.1263 32.1957 29.2035 31.9369 29.3342 31.7044C29.6258 31.2799 30.0311 30.946 30.5036 30.7409C30.9289 30.5084 31.3674 30.3223 31.786 30.123L42.5834 26.1894H42.6432L50.6498 29.1795L52.7761 29.9901L53.3209 30.2027L53.507 30.2891L53.3143 30.2293L52.7628 30.0366L50.6166 29.2725L42.5834 26.3555H42.6432L31.8724 30.3423C31.4538 30.5482 31.0152 30.7409 30.6033 30.9668C30.1812 31.1572 29.8201 31.4608 29.5601 31.8439C29.3694 32.278 29.3005 32.7558 29.3607 33.226V34.7409C29.3607 35.7576 29.3607 36.7941 29.3607 37.8439C29.3607 38.8938 29.3608 39.9702 29.4338 41.0466C29.7426 45.6175 31.3086 50.0141 33.9588 53.751C36.1993 56.9195 39.2362 59.4407 42.7628 61.0599H42.6631C45.0867 60.1722 47.2593 58.7109 48.9953 56.8008C50.6169 55.0631 51.9959 53.1141 53.095 51.0068C54.8864 47.5084 55.8395 43.6412 55.8791 39.7111C55.8791 38.0499 55.8791 36.5549 55.8791 35.2459C55.8791 33.937 56.0053 32.7875 55.5867 31.9702C55.2889 31.3394 54.7716 30.8387 54.1316 30.5615C53.9189 30.4619 53.7528 30.3954 53.6399 30.3556L53.4937 30.2825Z" fill="#263238"/>
<path d="M50.2029 47.857H47.9172V35.4051C47.9172 33.9953 47.3572 32.6433 46.3603 31.6464C45.3635 30.6495 44.0114 30.0895 42.6016 30.0895C41.1918 30.0895 39.8398 30.6495 38.8429 31.6464C37.846 32.6433 37.286 33.9953 37.286 35.4051V47.857H35.0003V35.4051C35.0003 33.3891 35.8011 31.4557 37.2266 30.0302C38.6522 28.6046 40.5856 27.8038 42.6016 27.8038C44.6176 27.8038 46.5511 28.6046 47.9766 30.0302C49.4021 31.4557 50.2029 33.3891 50.2029 35.4051V47.857Z" fill="#455A64"/>
<g opacity="0.4">
<path opacity="0.4" d="M50.2029 47.857H47.9172V35.4051C47.9172 33.9953 47.3572 32.6433 46.3603 31.6464C45.3635 30.6495 44.0114 30.0895 42.6016 30.0895C41.1918 30.0895 39.8398 30.6495 38.8429 31.6464C37.846 32.6433 37.286 33.9953 37.286 35.4051V47.857H35.0003V35.4051C35.0003 33.3891 35.8011 31.4557 37.2266 30.0302C38.6522 28.6046 40.5856 27.8038 42.6016 27.8038C44.6176 27.8038 46.5511 28.6046 47.9766 30.0302C49.4021 31.4557 50.2029 33.3891 50.2029 35.4051V47.857Z" fill="black"/>
</g>
<path d="M50.5903 42.3153H34.6102C33.3662 42.3153 32.3577 43.3238 32.3577 44.5678V53.2057C32.3577 54.4497 33.3662 55.4582 34.6102 55.4582H50.5903C51.8343 55.4582 52.8428 54.4497 52.8428 53.2057V44.5678C52.8428 43.3238 51.8343 42.3153 50.5903 42.3153Z" fill="#00B9E3"/>
<g opacity="0.5">
<path opacity="0.5" d="M44.3098 47.1796C44.3127 46.86 44.2262 46.5459 44.0599 46.2728C43.8937 45.9998 43.6545 45.7786 43.3692 45.6344C43.0839 45.4902 42.764 45.4286 42.4455 45.4565C42.1271 45.4845 41.8228 45.601 41.5671 45.7928C41.3113 45.9846 41.1143 46.2441 40.9983 46.542C40.8822 46.8399 40.8518 47.1642 40.9104 47.4785C40.969 47.7927 41.1143 48.0843 41.3299 48.3204C41.5455 48.5564 41.8228 48.7275 42.1304 48.8142V51.379H43.0673V48.8142C43.4242 48.7143 43.7387 48.5006 43.963 48.2055C44.1873 47.9105 44.3091 47.5503 44.3098 47.1796Z" fill="black"/>
</g>
<path d="M33.4451 54.2158C33.3985 54.2158 33.3653 52.0231 33.3653 49.3188C33.3653 46.6144 33.3985 44.4218 33.4451 44.4218C33.4916 44.4218 33.5314 46.6144 33.5314 49.3188C33.5314 52.0231 33.4916 54.2158 33.4451 54.2158Z" fill="#FAFAFA"/>
<path d="M41.2594 49.3722C41.1857 49.3491 41.1178 49.3106 41.0601 49.2592C40.8874 49.1346 40.7369 48.9819 40.6149 48.8074C40.4026 48.5248 40.2551 48.199 40.183 47.8529C40.111 47.5069 40.116 47.1493 40.1978 46.8054C40.2797 46.4616 40.4363 46.14 40.6565 45.8636C40.8768 45.5872 41.1552 45.3626 41.4721 45.206C41.6586 45.1101 41.8576 45.0408 42.0634 45.0001C42.2096 45.0001 42.296 45.0001 42.296 45.0001C42.0295 45.0816 41.7714 45.1884 41.5252 45.319C41.2355 45.4802 40.9827 45.7 40.7827 45.9644C40.5827 46.2288 40.44 46.5319 40.3638 46.8545C40.2875 47.1771 40.2793 47.5121 40.3397 47.838C40.4001 48.164 40.5278 48.4737 40.7146 48.7476C40.8779 48.9711 41.0602 49.1801 41.2594 49.3722Z" fill="#FAFAFA"/>
<path d="M80.9523 43.6238C80.9523 43.6238 80.9523 43.4173 80.9205 43.0043C80.8887 42.5913 80.9205 41.9771 80.8358 41.1776C80.681 38.8406 80.3142 36.5225 79.7398 34.2519C79.3186 32.6138 78.7879 31.0058 78.1513 29.4388C77.4183 27.5691 76.5328 25.7627 75.5039 24.038C72.9764 19.8272 69.672 16.1347 65.7666 13.157C58.3293 7.50693 49.083 4.77071 39.7687 5.46357C38.0442 5.58795 36.33 5.82853 34.6379 6.18368C32.9028 6.55803 31.1941 7.04621 29.5231 7.64506C22.4053 10.2383 16.2147 14.8812 11.7323 20.9882C10.5615 22.5844 9.52036 24.2718 8.61886 26.0342C8.14762 26.9079 7.74521 27.8239 7.33221 28.7346C6.91921 29.6453 6.58033 30.5984 6.27323 31.5621C3.66447 39.4043 3.66447 47.8804 6.27323 55.7227C6.58033 56.6863 6.96157 57.6182 7.33221 58.5501C7.70285 59.482 8.14232 60.3822 8.61357 61.2558C9.51972 63.01 10.5625 64.6901 11.7323 66.2807C16.2168 72.3891 22.4088 77.0336 29.5284 79.6291C31.1994 80.2279 32.908 80.7161 34.6432 81.0905C36.3354 81.4439 38.0496 81.6827 39.774 81.8053C43.0746 82.0615 46.3946 81.8835 49.6489 81.2758C55.5063 80.1802 61.027 77.7326 65.7719 74.1277C69.6789 71.148 72.9849 67.4539 75.5144 63.2414C76.5415 61.5175 77.4269 59.7131 78.1619 57.8459C78.7985 56.2771 79.3292 54.6674 79.7504 53.0276C80.3252 50.757 80.6921 48.4389 80.8464 46.1018C80.9205 45.3023 80.9046 44.6881 80.9311 44.2804C80.9576 43.8727 80.9629 43.6556 80.9629 43.6556C80.9629 43.6556 80.9629 44.5028 80.9046 46.1071C80.6798 50.1516 79.7981 54.1324 78.2943 57.8936C77.5591 59.7709 76.6737 61.5858 75.6468 63.3208C73.1195 67.5608 69.8077 71.2806 65.8883 74.2812C58.422 79.9811 49.1262 82.7482 39.7581 82.0594C38.0117 81.9285 36.2763 81.6791 34.5638 81.3128C32.8152 80.9343 31.0927 80.4444 29.4066 79.8462C22.2369 77.239 16.0002 72.5665 11.4834 66.4183C10.3066 64.8172 9.25677 63.1265 8.34352 61.3617C7.86699 60.4775 7.46458 59.5562 7.04628 58.6348C6.62798 57.7135 6.28911 56.7605 5.9873 55.7862C3.35732 47.8894 3.35732 39.353 5.9873 31.4562C6.29441 30.4872 6.67564 29.55 7.04628 28.6075C7.41692 27.665 7.86169 26.7702 8.33823 25.886C9.25126 24.1199 10.303 22.4291 11.4834 20.8293C16.0004 14.6836 22.2346 10.0116 29.4013 7.4015C31.0867 6.80252 32.8094 6.31435 34.5585 5.94011C36.2608 5.58335 37.9858 5.34451 39.721 5.2253C43.0393 4.96883 46.3768 5.14683 49.6489 5.75479C55.5379 6.8664 61.0859 9.33764 65.8513 12.9717C69.7693 15.9722 73.0795 19.6921 75.6045 23.9321C76.6333 25.6679 77.5188 27.4848 78.2519 29.3647C79.7575 33.1253 80.6392 37.1065 80.8623 41.1511C80.9735 42.7819 80.9523 43.6238 80.9523 43.6238Z" fill="#263238"/>
</svg>
