<svg width="21" height="7" viewBox="0 0 21 7" fill="none" xmlns="http://www.w3.org/2000/svg">
<path d="M1.78773 0.914437C1.26459 0.627506 0.667539 0.396738 0 0.236593L0.0280005 0.111882H2.76498C3.13596 0.124886 3.43699 0.236506 3.53495 0.630712L4.12977 3.46659L4.31198 4.32073L5.97797 0.111882H7.77679L5.10288 6.27753H3.30397L1.78773 0.914437ZM9.09998 6.28407H7.39883L8.46285 0.111882H10.1639L9.09998 6.28407ZM15.2668 0.262774L15.0354 1.59559L14.8816 1.53004C14.5737 1.40525 14.1674 1.28054 13.6144 1.29371C12.9427 1.29371 12.6415 1.56277 12.6345 1.82546C12.6345 2.11441 12.9989 2.30484 13.5939 2.58725C14.574 3.02719 15.0286 3.56557 15.0218 4.26819C15.0081 5.54864 13.846 6.37606 12.0611 6.37606C11.2979 6.36942 10.5628 6.2181 10.1638 6.04757L10.4019 4.66205L10.6259 4.76066C11.1789 4.99071 11.5428 5.08898 12.222 5.08898C12.7118 5.08898 13.2369 4.89838 13.2436 4.48488C13.2436 4.21565 13.0199 4.01851 12.3617 3.71646C11.7178 3.42087 10.8568 2.92848 10.8708 2.04198C10.8781 0.840425 12.0611 0 13.741 0C14.399 0 14.9312 0.137889 15.2668 0.262774ZM17.5278 4.09749H18.9417C18.8718 3.78889 18.5496 2.31147 18.5496 2.31147L18.4307 1.77964C18.3467 2.00943 18.1999 2.38373 18.2069 2.37056C18.2069 2.37056 17.6678 3.7429 17.5278 4.09749ZM19.6276 0.111882L21 6.28399H19.4249C19.4249 6.28399 19.2708 5.57482 19.2219 5.35812H17.0378C16.9746 5.52219 16.6808 6.28399 16.6808 6.28399H14.8958L17.4226 0.623991C17.5977 0.223415 17.906 0.111882 18.3118 0.111882H19.6276Z" fill="#868686"/>
</svg>
