<svg width="22" height="24" viewBox="0 0 22 24" fill="none" xmlns="http://www.w3.org/2000/svg">
<path d="M9.68044 12.382C9.44708 12.4167 9.33288 12.4564 9.2733 12.5359C9.15911 12.6699 9.15911 12.7444 9.27827 12.8487C9.36764 12.9331 9.43218 12.9331 10.172 12.8785C10.7926 12.8338 11.1501 12.8338 11.7707 12.8785C12.5602 12.938 12.5751 12.938 12.6793 12.8338C12.7737 12.7345 12.7786 12.7196 12.7091 12.5955C12.6694 12.521 12.5701 12.4416 12.4857 12.4167C12.2821 12.3571 10.0776 12.3274 9.68044 12.382Z" fill="#00B9E3"/>
<path d="M10.4514 0.0237384C9.96487 0.0584936 9.37403 0.167725 8.6392 0.366327C7.66605 0.624511 6.29073 1.52319 5.63037 2.32752C5.30268 2.72473 5.19842 2.89851 5.03953 3.34536C4.60757 4.5618 4.46855 6.03146 4.64233 7.53091C4.68205 7.88342 4.7317 8.22105 4.74659 8.28063C4.76645 8.37496 4.72177 8.42958 4.49834 8.60336C4.04156 8.94595 3.87771 9.40273 3.96708 10.0829C4.05645 10.7334 4.41394 11.3341 4.95513 11.7363C5.23814 11.9498 5.7545 12.1335 6.0524 12.1335C6.23611 12.1335 6.24108 12.1385 6.32548 12.4165C6.63332 13.4195 7.30856 14.4224 8.05332 14.9934C8.23207 15.1324 8.3413 15.2565 8.3413 15.3161C8.3413 15.5544 7.90934 16.2049 7.67101 16.324C7.59157 16.3637 7.34332 16.4432 7.12486 16.5028C6.90639 16.5623 6.52905 16.7063 6.2808 16.8255C5.92331 16.9993 5.79422 17.0936 5.63534 17.2922C5.47646 17.4958 5.31261 17.61 4.79128 17.8979C4.43876 18.0965 3.8926 18.4193 3.58477 18.6228C3.27197 18.8264 2.9691 19.0101 2.90952 19.0349C2.74568 19.0945 2.09029 19.6357 1.8619 19.8939C1.66826 20.1074 1.36539 20.4996 0.943361 21.0706C0.511401 21.6515 0 22.8829 0 23.3446C0 23.578 0.139022 23.7915 0.357484 23.9057C0.536226 24 0.814269 24 10.9728 24C21.1313 24 21.4093 24 21.5881 23.9057C21.8065 23.7915 21.9456 23.578 21.9456 23.3446C21.9456 22.8829 21.4342 21.6515 21.0022 21.0706C20.5802 20.4996 20.2773 20.1074 20.0837 19.8939C19.8553 19.6357 19.1999 19.0945 19.036 19.0349C18.9764 19.0101 18.6736 18.8264 18.3608 18.6228C18.0529 18.4193 17.5167 18.1015 17.1741 17.9128C16.6925 17.6447 16.4989 17.5107 16.3102 17.2972C16.0222 16.9645 15.4612 16.6765 14.7264 16.468C14.3341 16.3588 14.205 16.2992 14.071 16.1602C13.8823 15.9616 13.6043 15.47 13.6043 15.3211C13.6043 15.2615 13.7085 15.1423 13.8773 15.0132C14.6519 14.4174 15.2576 13.5337 15.6151 12.4811L15.7243 12.1583L15.9974 12.1236C16.9408 12.0044 17.7501 11.2448 17.9536 10.2865C18.1076 9.57651 17.9388 8.98567 17.4969 8.63315C17.3628 8.52392 17.2387 8.42958 17.2188 8.41468C17.199 8.39483 17.2188 8.18133 17.2536 7.93804C17.3628 7.26279 17.4025 5.8974 17.333 5.25691C17.2337 4.37809 17.0103 3.50921 16.7273 2.93823C16.3599 2.17857 15.4513 1.3792 14.2447 0.748637C13.5844 0.396118 12.4673 0.0982148 11.6431 0.0435999C11.4246 0.0287043 11.1813 0.0088427 11.0969 0.00387879C11.0175 -0.006051 10.7245 0.00387879 10.4514 0.0237384ZM12.2637 3.14676C13.2915 3.27585 14.354 3.55886 14.5377 3.75746C14.7462 3.98089 15.3122 5.43565 15.5357 6.3244C15.7392 7.12873 15.8087 7.97776 15.7392 8.79699C15.6399 9.94889 15.486 10.8078 15.1831 11.9101C14.9548 12.7343 14.7363 13.1662 14.1008 14.05C13.8029 14.4671 13.2766 14.8295 12.2637 15.3161C11.4246 15.7232 10.9926 15.7977 10.4217 15.6289C9.9599 15.4899 8.64416 14.7898 8.31151 14.5068C7.7157 13.9855 7.09507 12.9974 6.83688 12.1335C6.30066 10.366 6.07723 8.33028 6.2808 7.01951C6.41485 6.13572 6.93619 4.57173 7.34332 3.8518C7.50717 3.55886 8.80305 3.22124 10.3273 3.07725C10.655 3.04746 11.7821 3.08718 12.2637 3.14676ZM5.70982 8.91616C5.70982 9.00553 5.72471 9.15944 5.73961 9.25378L5.7694 9.42756H5.43674C5.07925 9.42756 4.96506 9.50203 4.96506 9.73043C4.96506 9.91413 5.09415 9.99854 5.36723 9.99854C5.71975 9.99854 5.79919 10.0532 5.83891 10.3362C5.8538 10.4653 5.91338 10.7781 5.96303 11.0362C6.01765 11.2895 6.05737 11.5079 6.05737 11.5178C6.05737 11.5625 5.86373 11.5327 5.63534 11.4533C5.4566 11.3937 5.29772 11.2795 5.05939 11.0362C4.65722 10.6291 4.54799 10.361 4.54303 9.79001C4.54303 9.44742 4.55792 9.3928 4.69198 9.19916C4.87569 8.93602 5.20338 8.75727 5.49632 8.75727C5.70485 8.75727 5.70982 8.76224 5.70982 8.91616ZM16.8216 8.83175C17.055 8.93105 17.2139 9.08 17.338 9.32329C17.4671 9.57651 17.4472 10.1574 17.2933 10.495C17.1543 10.8078 16.7273 11.2597 16.4244 11.4086C16.1513 11.5476 15.8584 11.5824 15.9031 11.4732C15.913 11.4434 15.9776 11.1206 16.0371 10.7681C16.1116 10.3709 16.1811 10.0978 16.2308 10.0581C16.2705 10.0283 16.4294 9.99854 16.5883 9.99854C16.9011 9.99854 16.9954 9.93399 16.9954 9.7205C16.9954 9.507 16.8663 9.42756 16.5138 9.42756H16.196L16.2208 9.15448C16.2308 9.00553 16.2506 8.85161 16.2655 8.81686C16.2904 8.73245 16.5982 8.74238 16.8216 8.83175ZM10.4713 16.2347C10.8685 16.3191 11.087 16.3191 11.4296 16.2495C11.6977 16.1949 12.5715 15.8374 12.8694 15.6587L13.0382 15.5594L13.1822 15.8722C13.2766 16.0807 13.4305 16.2893 13.6539 16.5127C13.8376 16.7014 14.0064 16.9099 14.0213 16.9794C14.1504 17.4908 14.3093 18.6278 14.3341 19.2335L14.3639 19.9584L13.9369 20.3507C13.7036 20.5691 13.3908 20.8373 13.2368 20.9465C13.0829 21.0557 12.6609 21.3685 12.2984 21.6366C11.504 22.2374 11.087 22.5105 10.9678 22.5105C10.8735 22.5105 10.2826 22.1182 9.49319 21.5274C9.21515 21.3189 8.86263 21.0557 8.70871 20.9465C8.55479 20.8373 8.24199 20.5691 8.00864 20.3556L7.58164 19.9584L7.61143 19.2335C7.63626 18.6228 7.79017 17.5057 7.92423 16.9794C7.93913 16.9049 8.09801 16.7063 8.27179 16.5326C8.48528 16.3191 8.64416 16.1006 8.74347 15.8921L8.89242 15.5693L9.51801 15.8672C9.86557 16.0311 10.2926 16.1949 10.4713 16.2347ZM7.32842 17.0837C7.07024 17.9377 6.94115 19.7797 7.04542 21.0954C7.105 21.8203 7.26388 23.0666 7.32842 23.295L7.35821 23.4042L6.52905 23.3943L5.69492 23.3794L5.5559 23.1063C5.37219 22.7488 5.09415 21.9047 4.98988 21.3586L4.90548 20.9266L5.01967 20.6933C5.1438 20.4351 5.78429 19.7598 6.04744 19.6059C6.22618 19.4967 6.2808 19.3825 6.23611 19.2038C6.19639 19.0498 6.02261 19.0101 5.67506 19.0796C5.32751 19.1491 5.11401 19.1491 5.11401 19.0846C5.11401 18.9903 5.26793 18.7271 5.62541 18.2008C6.0822 17.5355 6.34038 17.322 6.97094 17.0936C7.29863 16.9794 7.36318 16.9794 7.32842 17.0837ZM14.9548 17.0936C15.6002 17.317 15.8584 17.5256 16.3201 18.2008C16.6776 18.7271 16.8315 18.9903 16.8315 19.0846C16.8315 19.1491 16.618 19.1491 16.2705 19.0796C15.9229 19.0101 15.7492 19.0498 15.7094 19.2038C15.6648 19.3825 15.7194 19.4967 15.8981 19.6059C16.1613 19.7598 16.8018 20.4351 16.9259 20.6933L17.0401 20.9266L16.9557 21.3586C16.8514 21.9047 16.5734 22.7488 16.3897 23.1063L16.2506 23.3794L15.4165 23.3943L14.5873 23.4042L14.6171 23.295C14.637 23.2304 14.6916 22.8779 14.7462 22.5105C14.9448 21.1103 14.9945 19.879 14.8952 18.8115C14.8455 18.2803 14.6767 17.2376 14.6171 17.0787C14.5774 16.9744 14.6221 16.9794 14.9548 17.0936ZM4.6175 18.7072C4.6175 18.7172 4.58275 18.8066 4.54303 18.9009C4.43876 19.1541 4.44869 19.447 4.56289 19.5513C4.61254 19.596 4.73666 19.6556 4.83597 19.6854L5.01471 19.735L4.82107 19.9684C4.38911 20.4847 4.29974 20.867 4.43876 21.5721C4.54303 22.0736 4.831 22.9673 4.96506 23.1857C5.01967 23.2701 5.06436 23.3545 5.06436 23.3744C5.06436 23.4241 0.605737 23.4092 0.570982 23.3595C0.486576 23.2155 1.10721 21.7757 1.45973 21.299C1.54413 21.1848 1.67819 21.0011 1.75267 20.8869C2.12008 20.3457 3.35638 19.3229 4.08128 18.9605C4.21533 18.891 4.37422 18.8016 4.4338 18.7619C4.5331 18.6924 4.6175 18.6675 4.6175 18.7072ZM17.755 18.8959C17.9735 19.0151 18.3509 19.2435 18.5941 19.4073C19.0757 19.7251 19.9595 20.5493 20.1929 20.8869C20.2674 21.0011 20.3468 21.1054 20.3617 21.1203C20.4312 21.1749 20.7539 21.7161 20.9376 22.0885C21.1561 22.5204 21.4193 23.285 21.3746 23.3595C21.3398 23.4092 16.8812 23.4241 16.8812 23.3744C16.8812 23.3545 16.9259 23.2701 16.9805 23.1857C17.1146 22.9673 17.4025 22.0736 17.5068 21.5721C17.6458 20.867 17.5564 20.4847 17.1245 19.9684L16.9308 19.735L17.1096 19.6854C17.2089 19.6556 17.333 19.596 17.3827 19.5513C17.4969 19.447 17.5068 19.1541 17.4025 18.9009C17.3231 18.7172 17.3181 18.6874 17.3429 18.6874C17.3529 18.6874 17.5366 18.7817 17.755 18.8959Z" fill="#00B9E3"/>
<path d="M7.85031 6.97442C7.18499 7.05883 6.57925 7.3468 6.48491 7.62484C6.4154 7.81848 6.51471 8.01212 6.67855 8.01212H6.80268L6.64876 8.22065C6.40547 8.55828 6.35582 8.72709 6.35582 9.19877C6.36079 9.94353 6.54946 10.445 6.97646 10.8273C7.36373 11.1798 7.78576 11.3586 8.2773 11.3784C9.45402 11.433 10.2832 10.7379 10.4371 9.57611L10.4917 9.15408L10.6605 9.12429C10.8393 9.08954 11.4003 9.11933 11.445 9.15905C11.4599 9.17394 11.4947 9.36261 11.5195 9.57611C11.6585 10.6833 12.438 11.3884 13.5204 11.3884C14.3347 11.3884 15.0844 10.9365 15.4121 10.2464C15.5462 9.96339 15.566 9.85912 15.5809 9.38247C15.6057 8.75688 15.5611 8.55331 15.3178 8.23555C15.149 8.01708 15.149 8.01212 15.2631 8.01212C15.5114 8.01212 15.5859 7.69932 15.3873 7.48086C14.8858 6.94463 13.5055 6.80064 12.294 7.15813C11.9316 7.2624 11.8174 7.42624 11.9415 7.66456C11.9862 7.74401 12.0408 7.81352 12.0656 7.81352C12.0905 7.81352 12.3089 7.75394 12.5473 7.67946C12.9147 7.57023 13.0835 7.55037 13.6048 7.5454C14.1311 7.54044 14.2751 7.5603 14.5581 7.65463C14.7369 7.71918 14.9106 7.79862 14.9404 7.83338C14.9752 7.87806 14.9007 7.86813 14.717 7.80359C14.1311 7.60498 12.6515 7.63974 12.2146 7.86317C12.0061 7.9724 11.7479 8.24548 11.6337 8.48876C11.5592 8.63772 11.5394 8.64765 11.4003 8.61786C11.2017 8.57317 10.7449 8.57317 10.5463 8.61786C10.4024 8.64765 10.3825 8.63772 10.3229 8.49373C10.2882 8.40436 10.1591 8.23058 10.0399 8.10149C9.70724 7.74401 9.49871 7.68939 8.44115 7.68939C7.6815 7.69436 7.53254 7.70429 7.27436 7.79862C6.92184 7.92771 6.86226 7.91282 7.14527 7.76883C7.76094 7.45107 8.63479 7.43617 9.54339 7.72415C9.86612 7.82841 9.88102 7.82841 9.98032 7.73904C10.1044 7.62981 10.1094 7.461 9.99522 7.32198C9.80158 7.09358 8.53052 6.88505 7.85031 6.97442ZM9.85123 8.72709C9.9555 8.94555 9.9555 9.49667 9.85619 9.83926C9.74696 10.2017 9.50864 10.4897 9.17101 10.6635C8.9178 10.7926 8.83836 10.8074 8.40639 10.8074C7.99926 10.8124 7.88506 10.7926 7.71625 10.7081C7.4531 10.5691 7.21974 10.296 7.06086 9.95346C6.89702 9.60094 6.87219 8.91079 7.01121 8.6973C7.09562 8.56821 7.10555 8.56821 7.2545 8.64268C7.38856 8.71219 7.42331 8.71219 7.61695 8.63772C7.73115 8.59303 7.83541 8.55828 7.84534 8.55828C7.86024 8.55828 7.87017 8.66751 7.87017 8.80156C7.87017 9.49667 8.82843 9.5215 8.95752 8.83135C8.98731 8.67247 9.0022 8.66254 9.09157 8.71219C9.26039 8.80156 9.48381 8.6824 9.48381 8.49869V8.35471L9.6278 8.45401C9.70724 8.50862 9.80654 8.63275 9.85123 8.72709ZM12.4728 8.51855C12.4926 8.67247 12.7111 8.77177 12.8799 8.70723C12.9991 8.66254 13.009 8.67247 13.009 8.78667C13.009 9.08954 13.2573 9.32289 13.58 9.32289C13.9226 9.32289 14.1013 9.12926 14.1013 8.75191C14.1013 8.60793 14.1212 8.55828 14.1659 8.57814C14.4787 8.70723 14.5978 8.72212 14.712 8.64268C14.8262 8.56821 14.8411 8.56821 14.9255 8.66751C15.005 8.75191 15.0199 8.84625 15.0199 9.24842C15.0199 9.65555 15 9.76478 14.8908 9.99814C14.6177 10.584 14.2354 10.8124 13.5055 10.8124C12.9445 10.8124 12.7657 10.7429 12.4629 10.4102C12.1352 10.0577 12.0458 9.80947 12.0408 9.24345V8.76184L12.2096 8.58807C12.4132 8.37953 12.448 8.3696 12.4728 8.51855Z" fill="#00B9E3"/>
<path d="M10.1131 10.8179C10.0635 10.8626 10.0287 10.942 10.0287 10.9966C10.0287 11.1505 10.2819 11.374 10.5302 11.4385C10.8132 11.5179 11.3991 11.4782 11.6026 11.369C12.0942 11.1158 11.9353 10.5746 11.4388 10.8129C11.1657 10.942 10.9224 10.9619 10.6742 10.8675C10.3216 10.7384 10.2025 10.7235 10.1131 10.8179Z" fill="#00B9E3"/>
</svg>
