<svg width="20" height="16" viewBox="0 0 20 16" fill="none" xmlns="http://www.w3.org/2000/svg">
<path d="M15.5 7C13.0128 7 11 9.01281 11 11.5C11 13.9872 13.0128 16 15.5 16C17.9872 16 20 13.9872 20 11.5C20 9.01281 17.9872 7 15.5 7ZM17.5 11.6966C17.5 11.8634 17.3634 12 17.1966 12H15.3037C15.1369 12 15.0003 11.8634 15.0003 11.6966V9.30375C15.0003 9.13688 15.1369 9.00031 15.3037 9.00031H15.6966C15.8634 9.00031 16 9.13688 16 9.30375V11H17.1966C17.3634 11 17.5 11.1366 17.5 11.3034V11.6966ZM15.5 6C15.6687 6 15.835 6.01031 16 6.02531V4.5C16 3.7 15.3 3 14.5 3H12V1.5C12 0.7 11.3 0 10.5 0H5.5C4.7 0 4 0.7 4 1.5V3H1.5C0.7 3 0 3.7 0 4.5V7H12.3475C13.2412 6.37219 14.3272 6 15.5 6ZM10 3H6V2H10V3ZM10.2131 10H6.5C6.22375 10 6 9.77625 6 9.5V8H0V12.5C0 13.3 0.7 14 1.5 14H10.6072C10.2219 13.2487 10 12.4006 10 11.5C10 10.9794 10.0775 10.4775 10.2131 10Z" fill="#00B9E3"/>
</svg>
