<svg width="21" height="20" viewBox="0 0 21 20" fill="none" xmlns="http://www.w3.org/2000/svg">
<path opacity="0.1" d="M10.3382 0C4.62855 0 0 4.47715 0 10C0 15.5228 4.62855 20 10.3382 20C16.0478 20 20.6763 15.5228 20.6763 10C20.6697 4.47982 16.045 0.00642897 10.3382 0Z" fill="#3A3A3A"/>
<path d="M16.3041 6.83313L10.407 14.574C10.2664 14.7545 10.0567 14.8727 9.825 14.9022C9.59333 14.9316 9.35914 14.8698 9.17506 14.7306L4.96398 11.474C4.59238 11.1863 4.5322 10.6617 4.82958 10.3023C5.12696 9.94285 5.66927 9.88465 6.04087 10.1723L9.5524 12.8898L14.917 5.8473C15.093 5.59195 15.3997 5.45078 15.7155 5.47983C16.0313 5.50887 16.305 5.70344 16.4281 5.98627C16.5511 6.26911 16.5034 6.59445 16.3041 6.83313Z" fill="#3A3A3A"/>
</svg>
