<svg width="24" height="24" viewBox="0 0 24 24" fill="none" xmlns="http://www.w3.org/2000/svg">
<path opacity="0.3" d="M19 10C18.9 10 18.81 10.02 18.71 10.03C18.51 9.36 18.22 8.74 17.85 8.17C16.6 6.26 14.45 5 12 5C9.55 5 7.4 6.26 6.15 8.17C5.78 8.74 5.49 9.36 5.29 10.03C5.19 10.02 5.1 10 5 10C3.9 10 3 10.9 3 12C3 13.1 3.9 14 5 14C5.1 14 5.19 13.98 5.29 13.97C5.49 14.64 5.78 15.26 6.15 15.83C7.4 17.74 9.55 19 12 19C14.45 19 16.6 17.74 17.85 15.83C18.22 15.26 18.51 14.64 18.71 13.97C18.81 13.98 18.9 14 19 14C20.1 14 21 13.1 21 12C21 10.9 20.1 10 19 10ZM14.5 9.25C14.8315 9.25 15.1495 9.3817 15.3839 9.61612C15.6183 9.85054 15.75 10.1685 15.75 10.5C15.75 10.8315 15.6183 11.1495 15.3839 11.3839C15.1495 11.6183 14.8315 11.75 14.5 11.75C14.1685 11.75 13.8505 11.6183 13.6161 11.3839C13.3817 11.1495 13.25 10.8315 13.25 10.5C13.25 10.1685 13.3817 9.85054 13.6161 9.61612C13.8505 9.3817 14.1685 9.25 14.5 9.25ZM9.5 9.25C9.83152 9.25 10.1495 9.3817 10.3839 9.61612C10.6183 9.85054 10.75 10.1685 10.75 10.5C10.75 10.8315 10.6183 11.1495 10.3839 11.3839C10.1495 11.6183 9.83152 11.75 9.5 11.75C9.16848 11.75 8.85054 11.6183 8.61612 11.3839C8.3817 11.1495 8.25 10.8315 8.25 10.5C8.25 10.1685 8.3817 9.85054 8.61612 9.61612C8.85054 9.3817 9.16848 9.25 9.5 9.25ZM12 17C9.99 17 8.26 15.77 7.5 14H16.5C15.74 15.77 14.01 17 12 17Z" fill="#00B9E3"/>
<path d="M14.5 11.75C15.1904 11.75 15.75 11.1904 15.75 10.5C15.75 9.80964 15.1904 9.25 14.5 9.25C13.8096 9.25 13.25 9.80964 13.25 10.5C13.25 11.1904 13.8096 11.75 14.5 11.75Z" fill="#00B9E3"/>
<path d="M9.5 11.75C10.1904 11.75 10.75 11.1904 10.75 10.5C10.75 9.80964 10.1904 9.25 9.5 9.25C8.80964 9.25 8.25 9.80964 8.25 10.5C8.25 11.1904 8.80964 11.75 9.5 11.75Z" fill="#00B9E3"/>
<path d="M12 17C14.01 17 15.74 15.77 16.5 14H7.5C8.26 15.77 9.99 17 12 17ZM22.94 11.34C22.8145 10.6019 22.4847 9.9137 21.988 9.35343C21.4914 8.79315 20.8477 8.38319 20.13 8.17C19.6032 7.06254 18.8583 6.07278 17.94 5.26C16.36 3.85 14.28 3 12 3C9.72 3 7.64 3.85 6.06 5.26C5.14 6.07 4.39 7.06 3.87 8.17C3.15148 8.38172 2.50699 8.79123 2.01011 9.35177C1.51323 9.91231 1.18399 10.6013 1.06 11.34C1.02 11.55 1 11.77 1 12C1 12.23 1.02 12.45 1.06 12.66C1.18555 13.3981 1.51533 14.0863 2.01198 14.6466C2.50863 15.2068 3.15228 15.6168 3.87 15.83C4.38994 16.9305 5.12823 17.9137 6.04 18.72C7.62 20.14 9.71 21 12 21C14.29 21 16.38 20.14 17.97 18.72C18.87 17.92 19.62 16.93 20.14 15.83C20.8564 15.6163 21.4986 15.2059 21.9935 14.6456C22.4885 14.0852 22.8164 13.3973 22.94 12.66C22.98 12.45 23 12.23 23 12C23 11.77 22.98 11.55 22.94 11.34ZM19 14C18.9 14 18.81 13.98 18.71 13.97C18.51 14.64 18.22 15.26 17.85 15.83C16.6 17.74 14.45 19 12 19C9.55 19 7.4 17.74 6.15 15.83C5.78 15.26 5.49 14.64 5.29 13.97C5.19 13.98 5.1 14 5 14C3.9 14 3 13.1 3 12C3 10.9 3.9 10 5 10C5.1 10 5.19 10.02 5.29 10.03C5.49 9.36 5.78 8.74 6.15 8.17C7.4 6.26 9.55 5 12 5C14.45 5 16.6 6.26 17.85 8.17C18.22 8.74 18.51 9.36 18.71 10.03C18.81 10.02 18.9 10 19 10C20.1 10 21 10.9 21 12C21 13.1 20.1 14 19 14Z" fill="#00B9E3"/>
</svg>
