<svg width="21" height="20" viewBox="0 0 21 20" fill="none" xmlns="http://www.w3.org/2000/svg">
<path d="M19.7575 10.3241L10.7509 0.316732C10.3716 -0.105577 9.64305 -0.105577 9.26377 0.316732L0.257172 10.3241C0.127534 10.4678 0.0424395 10.646 0.012237 10.8372C-0.0179655 11.0284 0.00802462 11.2242 0.0870475 11.4009C0.247165 11.7621 0.605427 11.9943 1.00072 11.9943H3.00218V18.9994C3.00218 19.2648 3.10762 19.5194 3.29529 19.707C3.48296 19.8947 3.7375 20.0001 4.00292 20.0001H7.00511C7.27053 20.0001 7.52507 19.8947 7.71274 19.707C7.90041 19.5194 8.00585 19.2648 8.00585 18.9994V14.9965H12.0088V18.9994C12.0088 19.2648 12.1142 19.5194 12.3019 19.707C12.4896 19.8947 12.7441 20.0001 13.0095 20.0001H16.0117C16.2771 20.0001 16.5317 19.8947 16.7193 19.707C16.907 19.5194 17.0124 19.2648 17.0124 18.9994V11.9943H19.0139C19.2077 11.9951 19.3976 11.9395 19.5603 11.8343C19.7231 11.7291 19.8517 11.5788 19.9306 11.4017C20.0094 11.2247 20.035 11.0285 20.0043 10.8372C19.9735 10.6458 19.8878 10.4675 19.7575 10.3241Z" fill="#606970"/>
</svg>
