<svg width="328" height="88" viewBox="0 0 328 88" fill="none" xmlns="http://www.w3.org/2000/svg">
<path fill-rule="evenodd" clip-rule="evenodd" d="M0 4C0 1.79086 1.79086 0 4 0H11H317H324C326.209 0 328 1.79086 328 4V84C328 86.2091 326.209 88 324 88H4C1.79086 88 0 86.2091 0 84V4ZM317 0.857143H11H4.5C2.567 0.857143 1 2.42415 1 4.35714V83.6429C1 85.5759 2.60031 87.1429 4.5333 87.1429H323.467C325.4 87.1429 327 85.5759 327 83.6429V4.35714C327 2.42415 325.433 0.857143 323.5 0.857143H317Z" fill="#E0E0E0"/>
</svg>
