<svg width="21" height="21" viewBox="0 0 21 21" fill="none" xmlns="http://www.w3.org/2000/svg">
<path d="M9.49854 3.00293H2.88857C2.38769 3.00293 1.90732 3.2019 1.55315 3.55608C1.19897 3.91025 1 4.39062 1 4.89149V18.1115C1 18.6123 1.19897 19.0927 1.55315 19.4469C1.90732 19.801 2.38769 20 2.88857 20H16.1085C16.6094 20 17.0898 19.801 17.4439 19.4469C17.7981 19.0927 17.9971 18.6123 17.9971 18.1115V11.5015" stroke="#00B9E3" stroke-width="2" stroke-linecap="round" stroke-linejoin="round"/>
<path d="M16.579 1.5867C16.9547 1.21104 17.4642 1 17.9955 1C18.5267 1 19.0362 1.21104 19.4119 1.5867C19.7875 1.96236 19.9986 2.47186 19.9986 3.00313C19.9986 3.53439 19.7875 4.04389 19.4119 4.41955L10.4412 13.3902L6.66406 14.3345L7.60835 10.5574L16.579 1.5867Z" stroke="#00B9E3" stroke-width="2" stroke-linecap="round" stroke-linejoin="round"/>
</svg>
