<svg width="61" height="37" viewBox="0 0 61 37" fill="none" xmlns="http://www.w3.org/2000/svg">
<path fill-rule="evenodd" clip-rule="evenodd" d="M8.18026 23.9591H8.51991L8.20186 25.2794C8.15336 25.4736 8.16416 25.6244 8.22876 25.7213C8.29354 25.8183 8.41194 25.8668 8.58982 25.8668C8.7622 25.8668 8.90769 25.8183 9.02096 25.7213C9.13406 25.6242 9.20964 25.4734 9.25813 25.2794L9.576 23.9591H9.92096L9.5976 25.3118C9.52751 25.6028 9.40362 25.8238 9.22043 25.9693C9.04256 26.1148 8.80539 26.1904 8.51442 26.1904C8.22345 26.1904 8.02398 26.1203 7.9162 25.9746C7.80841 25.8291 7.78682 25.6082 7.8569 25.3173L8.18026 23.9592V23.9591ZM49.082 26.1309L49.5991 23.9591H50.7793L50.7092 24.2608H49.874L49.7448 24.8051H50.58L50.5044 25.1123H49.6692L49.5021 25.8127H50.3375L50.2621 26.1307H49.082V26.1309ZM49.0496 24.4872C48.974 24.4012 48.8825 24.3364 48.7855 24.2985C48.6883 24.2555 48.5807 24.2339 48.4567 24.2339C48.225 24.2339 48.0202 24.3093 47.837 24.4603C47.6538 24.6113 47.5353 24.8107 47.476 25.053C47.422 25.2849 47.4436 25.4789 47.5515 25.6351C47.6538 25.7859 47.8154 25.8615 48.031 25.8615C48.1549 25.8615 48.279 25.8399 48.4027 25.7914C48.5267 25.7484 48.6508 25.6782 48.78 25.5867L48.683 25.9854C48.5752 26.0553 48.4621 26.104 48.3434 26.1364C48.2248 26.1686 48.1062 26.1849 47.977 26.1849C47.8154 26.1849 47.6698 26.1578 47.5459 26.1038C47.4218 26.05 47.3197 25.9691 47.2386 25.8615C47.1579 25.759 47.1094 25.6351 47.0878 25.4952C47.0664 25.355 47.0717 25.2042 47.1149 25.0424C47.1526 24.8808 47.2172 24.735 47.3036 24.595C47.3898 24.4548 47.5029 24.3309 47.6322 24.2286C47.7614 24.1208 47.9016 24.0401 48.0526 23.9861C48.2034 23.9323 48.3542 23.9054 48.5106 23.9054C48.6345 23.9054 48.7476 23.9215 48.8556 23.9592C48.9579 23.9971 49.0549 24.0507 49.1411 24.1263L49.0496 24.4872ZM45.6976 25.2741H46.2848L46.1878 24.7782C46.1825 24.746 46.177 24.7081 46.177 24.6704C46.1715 24.6274 46.1715 24.5842 46.1715 24.5357C46.1499 24.5842 46.1285 24.6272 46.1014 24.6704C46.0799 24.7134 46.0584 24.7513 46.0368 24.7837L45.6974 25.2741H45.6976ZM46.4466 26.1309L46.3388 25.5706H45.4981L45.1208 26.1309H44.7599L46.3225 23.873L46.8075 26.1309H46.4466ZM43.6013 26.1309L44.1186 23.9591H45.2988L45.2287 24.2608H44.3933L44.2641 24.7998H45.0992L45.0238 25.107H44.1886L43.9461 26.1254H43.6011V26.1309H43.6013ZM42.5827 24.8806H42.6473C42.8305 24.8806 42.9546 24.859 43.0247 24.8159C43.0946 24.7727 43.1433 24.6973 43.1702 24.584C43.1969 24.4654 43.1863 24.3792 43.1323 24.3307C43.0787 24.2822 42.9652 24.2551 42.7928 24.2551H42.728L42.5825 24.8805L42.5827 24.8806ZM42.4965 25.1555L42.2647 26.1254H41.9413L42.4588 23.9537H42.9385C43.0787 23.9537 43.1863 23.9645 43.2564 23.9808C43.3316 23.9971 43.391 24.0293 43.434 24.0723C43.488 24.1263 43.5202 24.1909 43.5363 24.2771C43.5526 24.3582 43.5471 24.4497 43.5255 24.552C43.4825 24.7245 43.4123 24.8647 43.3047 24.9615C43.1969 25.0585 43.062 25.1178 42.9004 25.1394L43.3909 26.1252H43.0027L42.5339 25.1553H42.4962L42.4965 25.1555ZM40.3679 26.1309L40.8854 23.9591H42.0709L42.001 24.2608H41.1656L41.0364 24.8051H41.8716L41.7964 25.1123H40.961L40.7941 25.8127H41.6293L41.5537 26.1307H40.3681L40.3679 26.1309ZM39.9962 24.2555L39.549 26.1254H39.2042L39.6514 24.2555H39.0909L39.161 23.9537H40.6268L40.5569 24.2555H39.9964H39.9962ZM36.4881 26.1309L37.027 23.873L38.0509 25.1987C38.078 25.2364 38.1047 25.2743 38.1316 25.3173C38.1585 25.3603 38.1856 25.409 38.2178 25.4626L38.5791 23.9591H38.8969L38.358 26.2118L37.3125 24.859C37.2856 24.8214 37.2585 24.7837 37.2318 24.7458C37.2049 24.7028 37.1833 24.6649 37.167 24.6164L36.8062 26.1252H36.4883V26.1307L36.4881 26.1309ZM35.6474 26.1309L36.1648 23.9591H36.5095L35.9922 26.1309H35.6474ZM33.1092 25.6944L33.4163 25.5651C33.4216 25.6621 33.4485 25.7374 33.508 25.7859C33.5673 25.8344 33.648 25.8615 33.7557 25.8615C33.858 25.8615 33.9444 25.8344 34.0198 25.7753C34.0952 25.716 34.1439 25.6406 34.1653 25.5436C34.1977 25.4143 34.1223 25.301 33.9391 25.2042C33.9122 25.1879 33.8961 25.1771 33.8796 25.1718C33.6749 25.0532 33.5457 24.9509 33.4917 24.8539C33.4379 24.7569 33.4269 24.6437 33.4595 24.5092C33.5025 24.3313 33.5942 24.1911 33.7395 24.078C33.8851 23.9702 34.0467 23.9109 34.2409 23.9109C34.3972 23.9109 34.5209 23.9433 34.6125 24.0024C34.7042 24.0619 34.7527 24.1534 34.7688 24.2667L34.4672 24.4069C34.4402 24.3368 34.4078 24.2883 34.3648 24.2559C34.3218 24.2237 34.2678 24.2074 34.203 24.2074C34.1113 24.2074 34.0306 24.2343 33.966 24.2828C33.9012 24.3313 33.8582 24.3961 33.8366 24.4823C33.8044 24.6116 33.8961 24.7353 34.106 24.8486C34.1223 24.8594 34.1329 24.8649 34.1439 24.87C34.3271 24.967 34.451 25.0642 34.5048 25.1612C34.5587 25.258 34.5695 25.3713 34.5373 25.5167C34.4887 25.7215 34.3864 25.8831 34.2299 26.0072C34.0738 26.1256 33.8904 26.1906 33.6749 26.1906C33.4972 26.1906 33.357 26.1472 33.26 26.061C33.1522 25.9748 33.1037 25.8507 33.1092 25.6946V25.6944ZM32.7481 24.2555L32.3009 26.1254H31.9561L32.4034 24.2555H31.843L31.9128 23.9537H33.3786L33.3085 24.2555H32.7481ZM29.24 26.1309L29.7788 23.873L30.8029 25.1987C30.8298 25.2364 30.8568 25.2743 30.8837 25.3173C30.9105 25.3603 30.9375 25.409 30.9699 25.4626L31.331 23.9591H31.6489L31.1101 26.2118L30.0646 24.859C30.0376 24.8214 30.0108 24.7837 29.9838 24.7458C29.9569 24.7028 29.9353 24.6649 29.9192 24.6164L29.5581 26.1252H29.2402V26.1307L29.24 26.1309ZM27.6664 26.1309L28.1838 23.9591H29.3639L29.2938 24.2608H28.4586L28.3293 24.8051H29.1645L29.0891 25.1123H28.2539L28.0868 25.8127H28.9222L28.8466 26.1307H27.6664V26.1309ZM27.0953 25.0585C27.0953 25.0424 27.1006 24.9937 27.1114 24.9183C27.1169 24.8537 27.1222 24.8052 27.1277 24.7621C27.1061 24.8107 27.0845 24.859 27.0576 24.9129C27.0307 24.9615 26.9983 25.0153 26.9606 25.0638L26.1307 26.2224L25.8613 25.0424C25.8505 24.9939 25.8397 24.9454 25.8342 24.9022C25.8289 24.8592 25.8234 24.8107 25.8234 24.7675C25.8126 24.8107 25.7965 24.859 25.7804 24.9129C25.7641 24.9615 25.7427 25.0153 25.7157 25.0693L25.2307 26.1364H24.9128L25.9528 23.873L26.2493 25.2417C26.2546 25.2633 26.2601 25.301 26.2656 25.3495C26.2709 25.3982 26.2817 25.4628 26.2925 25.5382C26.3302 25.4736 26.3787 25.3982 26.4434 25.301C26.4595 25.2743 26.4757 25.258 26.4811 25.2417L27.4188 23.873L27.3864 26.1364H27.0686L27.0957 25.0585H27.0953ZM23.8136 26.1309L24.0507 25.1394L23.6196 23.9645H23.9805L24.2498 24.7029C24.2553 24.7244 24.2606 24.746 24.2714 24.7782C24.2822 24.8107 24.2877 24.8429 24.2983 24.8752C24.3199 24.8429 24.3415 24.8106 24.3631 24.7782C24.3847 24.746 24.4063 24.7189 24.4277 24.692L25.0583 23.9645H25.4031L24.3955 25.1339L24.1583 26.1252H23.8134V26.1307L23.8136 26.1309ZM22.213 25.2741H22.8003L22.7033 24.7782C22.6978 24.746 22.6925 24.7081 22.6925 24.6704C22.687 24.6274 22.687 24.5842 22.687 24.5357C22.6654 24.5842 22.6438 24.6272 22.6169 24.6704C22.5953 24.7134 22.5739 24.7513 22.5521 24.7837L22.2127 25.2741H22.213ZM22.9566 26.1309L22.8488 25.5706H22.0081L21.6309 26.1309H21.2699L22.8327 23.873L23.3176 26.1309H22.9566ZM20.7957 24.8645H20.8819C21.0706 24.8645 21.2053 24.8429 21.2807 24.7998C21.3561 24.7568 21.4045 24.6814 21.4316 24.5734C21.4584 24.4603 21.4422 24.3741 21.3884 24.3311C21.3292 24.2826 21.2106 24.261 21.0329 24.261H20.9467L20.7957 24.8647V24.8645ZM20.704 25.1555L20.4723 26.1309H20.149L20.6663 23.9591H21.189C21.3453 23.9591 21.453 23.9699 21.5231 23.986C21.5932 24.0021 21.6472 24.0291 21.6902 24.0722C21.744 24.1206 21.7817 24.1907 21.798 24.2769C21.8141 24.3633 21.8088 24.4548 21.7872 24.5571C21.7603 24.6596 21.7226 24.7566 21.6633 24.8428C21.604 24.929 21.5339 24.999 21.4585 25.0475C21.3939 25.0852 21.3238 25.1174 21.2485 25.1337C21.1731 25.1498 21.0545 25.1608 20.9035 25.1608H20.7042V25.1553L20.704 25.1555ZM17.4869 25.8075H17.7779C17.9341 25.8075 18.058 25.7967 18.1444 25.7753C18.2306 25.7539 18.306 25.716 18.3761 25.6675C18.4731 25.5975 18.554 25.5113 18.6186 25.4035C18.6833 25.301 18.7318 25.1771 18.764 25.0371C18.7963 24.8969 18.8071 24.7783 18.7909 24.6762C18.7748 24.5736 18.7371 24.4821 18.6724 24.412C18.6239 24.3582 18.5646 24.3258 18.4839 24.3042C18.403 24.2826 18.2791 24.272 18.1012 24.272H17.8534L17.4869 25.8077V25.8075ZM17.0665 26.1309L17.5841 23.9591H18.0474C18.3492 23.9591 18.5595 23.9752 18.6724 24.0076C18.7856 24.0399 18.8824 24.0884 18.958 24.1638C19.055 24.2608 19.1198 24.3849 19.1467 24.5302C19.1736 24.6812 19.1628 24.8536 19.1198 25.0422C19.0711 25.2362 19.0012 25.4031 18.9042 25.5539C18.8072 25.7049 18.6833 25.8235 18.5379 25.9204C18.4301 25.996 18.3115 26.0445 18.1821 26.0767C18.0582 26.1091 17.8695 26.1252 17.6216 26.1252H17.0665V26.1307V26.1309ZM15.4876 26.1309L16.005 23.9591H17.1851L17.115 24.2608H16.2796L16.1503 24.8051H16.9857L16.9103 25.1123H16.0749L15.9078 25.8127H16.7432L16.6678 26.1307H15.4876V26.1309ZM14.6522 26.1309L15.1696 23.9591H15.5143L14.997 26.1309H14.652H14.6522ZM13.0894 26.1309L13.6068 23.9591H14.7869L14.7168 24.2608H13.8816L13.7522 24.7998H14.5874L14.5121 25.107H13.6767L13.4342 26.1254H13.0892V26.1309H13.0894ZM12.254 26.1309L12.7714 23.9591H13.1161L12.5988 26.1309H12.2538H12.254ZM9.87228 26.1309L10.411 23.873L11.4349 25.1987C11.4618 25.2364 11.4887 25.2743 11.5158 25.3173C11.5427 25.3603 11.5696 25.409 11.602 25.4626L11.963 23.9591H12.2809L11.7422 26.2118L10.6967 24.859C10.6698 24.8214 10.6429 24.7837 10.6158 24.7458C10.5889 24.7028 10.5673 24.6649 10.5512 24.6164L10.1901 26.1252H9.87228V26.1307V26.1309Z" fill="#3A3734"/>
<path fill-rule="evenodd" clip-rule="evenodd" d="M42.8213 22.068H40.4557L43.7429 10.2021H46.1085L42.8213 22.068ZM23.1627 21.3246C23.0334 21.7933 22.6022 22.1218 22.1173 22.1218H9.92234C9.58819 22.1218 9.3404 22.0085 9.17863 21.7825C9.01704 21.556 8.97935 21.276 9.07634 20.9422L12.051 10.2345H14.4168L11.76 19.8003H21.2229L23.8795 10.2345H26.2454L23.1629 21.3246H23.1627ZM41.5926 10.5738C41.431 10.3476 41.1776 10.2345 40.8328 10.2345H27.8349L27.1937 12.5613H39.0169L38.3272 15.0445H28.8698V15.039H26.5041L24.5426 22.1219H26.9082L28.223 17.3713H38.8553C39.1895 17.3713 39.502 17.258 39.793 17.032C40.084 16.8057 40.2781 16.5257 40.3696 16.1917L41.6845 11.4412C41.7868 11.0858 41.7546 10.8003 41.5928 10.574L41.5926 10.5738Z" fill="#716D6A"/>
<path fill-rule="evenodd" clip-rule="evenodd" d="M50.1885 10.2236L53.1794 16.17L46.8906 22.1163L47.6385 19.419L51.0778 16.17L49.4416 12.917L50.1885 10.2236Z" fill="#0E8635"/>
<path fill-rule="evenodd" clip-rule="evenodd" d="M48.0848 10.2236L51.0755 16.17L44.7812 22.1163L48.0848 10.2236Z" fill="#E97208"/>
</svg>
