<svg width="18" height="17" viewBox="0 0 18 17" fill="none" xmlns="http://www.w3.org/2000/svg">
<path d="M17.6267 8.35819L9.44871 0.186119C9.38982 0.12712 9.31988 0.080312 9.24289 0.0483754C9.16589 0.0164388 9.08336 0 9 0C8.91664 0 8.83411 0.0164388 8.75711 0.0483754C8.68012 0.080312 8.61017 0.12712 8.55129 0.186119L0.373263 8.35819C0.13501 8.59644 0 8.92007 0 9.25759C0 9.95845 0.569821 10.5283 1.27068 10.5283H2.13236V16.3595C2.13236 16.7109 2.41628 16.9949 2.7677 16.9949H7.72932V12.5475H9.95301V16.9949H15.2323C15.5837 16.9949 15.8676 16.7109 15.8676 16.3595V10.5283H16.7293C17.0668 10.5283 17.3905 10.3953 17.6287 10.155C18.1231 9.65865 18.1231 8.85455 17.6267 8.35819Z" fill="#00B9E3"/>
</svg>
