<svg width="18" height="18" viewBox="0 0 18 18" fill="none" xmlns="http://www.w3.org/2000/svg">
<path fill-rule="evenodd" clip-rule="evenodd" d="M7.70068 4.546C8.14043 4.62892 8.55269 4.8198 8.90041 5.10149C9.24813 5.38317 9.52041 5.74684 9.69279 6.15981C9.86517 6.57278 9.93223 7.02211 9.88797 7.46741C9.8437 7.91272 9.68949 8.34005 9.43918 8.711L16.3562 14.08C16.5815 13.9633 16.8396 13.9262 17.0886 13.9746C17.3377 14.0231 17.563 14.1543 17.7281 14.347C17.8931 14.5397 17.9882 14.7825 17.9979 15.036C18.0075 15.2896 17.9312 15.5389 17.7813 15.7436C17.6314 15.9483 17.4167 16.0963 17.1721 16.1636C16.9275 16.2309 16.6673 16.2135 16.4338 16.1143C16.2003 16.0151 16.0071 15.8399 15.8858 15.6171C15.7644 15.3943 15.7219 15.137 15.7652 14.887L8.73018 9.426C8.3989 9.65302 8.02115 9.80328 7.62445 9.86583C7.22775 9.92838 6.8221 9.90165 6.43704 9.78759C6.05197 9.67352 5.69721 9.475 5.39858 9.20647C5.09996 8.93795 4.86499 8.60618 4.71081 8.23536C4.55663 7.86453 4.48712 7.46398 4.50733 7.06289C4.52754 6.6618 4.63697 6.27027 4.82765 5.91682C5.01833 5.56338 5.28546 5.25692 5.60957 5.01978C5.93368 4.78263 6.3066 4.62078 6.70118 4.546L6.70018 0H7.70018V4.546H7.70068ZM8.10018 7.2C8.10018 7.31819 8.0769 7.43522 8.03167 7.54442C7.98644 7.65361 7.92015 7.75282 7.83658 7.8364C7.753 7.91997 7.65379 7.98626 7.5446 8.03149C7.4354 8.07672 7.31837 8.1 7.20018 8.1C7.08199 8.1 6.96496 8.07672 6.85577 8.03149C6.74657 7.98626 6.64736 7.91997 6.56378 7.8364C6.48021 7.75282 6.41392 7.65361 6.36869 7.54442C6.32346 7.43522 6.30018 7.31819 6.30018 7.2C6.30018 6.96131 6.395 6.73239 6.56378 6.5636C6.73257 6.39482 6.96149 6.3 7.20018 6.3C7.43888 6.3 7.66779 6.39482 7.83658 6.5636C8.00536 6.73239 8.10018 6.96131 8.10018 7.2Z" fill="#00B9E3"/>
<path d="M10.8146 7.19198C10.8148 6.50036 10.6157 5.82332 10.2413 5.24183C9.86684 4.66034 9.33283 4.199 8.70312 3.91298V0.0529785C10.8476 0.241479 11.9616 0.916978 12.9591 1.84148C13.0091 1.88848 13.0591 1.93398 13.1071 1.97798V1.97848C13.5321 2.36848 13.8701 2.67898 14.0446 3.14398L16.1616 8.77998C16.2184 8.93125 16.2376 9.09402 16.2176 9.25434C16.1977 9.41467 16.1392 9.56777 16.0471 9.70054C15.9551 9.8333 15.8322 9.94177 15.689 10.0166C15.5459 10.0915 15.3867 10.1306 15.2251 10.1305H14.4096V11.3L10.6221 8.35848C10.7503 7.98312 10.8156 7.58913 10.8151 7.19248L10.8146 7.19198Z" fill="#00B9E3"/>
<path d="M5.7015 3.9231V0.120605C1.2065 0.797105 0 4.15061 0 5.98761C0 8.8711 1.8415 11.1076 2.705 12.0041V18.0001H11.261V14.7441H13.4075C13.5585 14.7441 13.7025 14.7101 13.8305 14.6501L8.538 10.5401C7.66325 10.9011 6.68155 10.9031 5.80531 10.5458C4.92907 10.1884 4.22876 9.50047 3.85592 8.63071C3.48308 7.76095 3.4677 6.77936 3.81309 5.89834C4.15849 5.01732 4.83689 4.30773 5.7015 3.9231Z" fill="#00B9E3"/>
</svg>
