<svg width="20" height="20" viewBox="0 0 20 20" fill="none" xmlns="http://www.w3.org/2000/svg">
<path d="M14.8027 12.2515C14.8027 13.1266 15.0517 13.4755 15.7027 13.4755C17.1538 13.4755 18.0778 11.6265 18.0778 8.55139C18.0778 3.8512 14.6527 1.60111 10.3765 1.60111C5.97733 1.60111 1.97612 4.55123 1.97612 10.1265C1.97612 15.4517 5.47626 18.3518 10.8515 18.3518C12.6766 18.3518 13.9016 18.1518 15.7756 17.5268L16.1777 19.2008C14.3277 19.8018 12.3505 19.9758 10.8265 19.9758C3.7762 19.9758 0 16.1007 0 10.1254C0 4.10017 4.37622 0 10.4015 0C16.6767 0 20.0008 3.75015 20.0008 8.35034C20.0008 12.2505 18.7768 15.2256 14.9266 15.2256C13.1755 15.2256 12.0265 14.5256 11.8765 12.9745C11.4265 14.6996 10.2265 15.2256 8.60035 15.2256C6.42526 15.2256 4.60019 13.5495 4.60019 10.1754C4.60019 6.77528 6.20129 4.67519 9.07641 4.67519C10.6015 4.67519 11.5515 5.27521 11.9744 6.22525L12.7005 4.9002H14.8006V12.2515H14.8027ZM11.7286 8.95141C11.7286 7.57739 10.7025 7.00133 9.85248 7.00133C8.92745 7.00133 7.90345 7.75031 7.90345 9.95145C7.90345 11.7015 8.67848 12.6766 9.85248 12.6766C10.6775 12.6766 11.7286 12.1515 11.7286 10.7015V8.95141Z" fill="#00B9E3"/>
</svg>
