<svg width="11" height="7" viewBox="0 0 11 7" fill="none" xmlns="http://www.w3.org/2000/svg">
<path fill-rule="evenodd" clip-rule="evenodd" d="M9.71279 0.220967C9.85427 0.0794843 10.0462 -2.98153e-09 10.2462 0C10.4463 2.98153e-09 10.6382 0.0794843 10.7797 0.220967C10.9212 0.362451 11.0007 0.554343 11.0007 0.75443C11.0007 0.954517 10.9212 1.14641 10.7797 1.28789L6.0328 6.0338C5.89152 6.1749 5.70001 6.25416 5.50034 6.25416C5.30067 6.25416 5.10916 6.1749 4.96788 6.0338L0.220967 1.28789C0.0794844 1.14641 0 0.954517 0 0.75443C0 0.554343 0.0794844 0.362451 0.220967 0.220967C0.362451 0.0794843 0.554343 0 0.75443 0C0.954518 0 1.14641 0.0794843 1.28789 0.220967L5.50034 4.43341L9.71279 0.220967Z" fill="#A5ACB8"/>
</svg>
