<svg width="22" height="24" viewBox="0 0 22 24" fill="none" xmlns="http://www.w3.org/2000/svg">
<path d="M11.6952 0.0160648C11.6399 0.0260915 11.4034 0.0712114 11.167 0.116331C10.3773 0.261718 9.77363 0.547477 8.96878 1.1591C8.43556 1.56017 7.41944 2.56785 7.29368 2.81851C7.25344 2.90374 7.1478 3.07921 7.06228 3.21958C6.68342 3.84831 6.36509 4.51135 6.11155 5.19984C5.85501 5.93179 5.72422 6.21755 5.48276 6.56848C5.40228 6.69382 5.21616 7.00464 5.08034 7.26534C4.06924 9.14533 3.76742 10.1029 3.83785 11.2108C3.90827 12.2937 4.30064 13.1911 5.18597 14.284C5.69404 14.9056 7.01198 15.798 7.98283 16.179C8.60659 16.4247 9.50702 16.6603 9.99999 16.7054C10.2163 16.7305 10.3622 16.7656 10.3571 16.8007C10.3571 16.8508 9.81387 17.3471 9.67302 17.4273C9.58247 17.4775 9.71326 17.9989 9.9346 18.4651C10.2767 19.2071 11.1469 20.1245 11.8411 20.4755C12.0423 20.5757 12.1077 20.5908 12.2083 20.5456C12.3791 20.4754 12.5708 20.4754 12.7415 20.5456C13.1138 20.7161 14.5222 19.5129 14.9498 18.6606C15.1105 18.3293 15.2336 17.9813 15.317 17.6229C15.3472 17.4675 15.3372 17.4324 15.2366 17.3772C15.1058 17.307 14.5876 16.8358 14.5876 16.7856C14.5876 16.7656 14.7989 16.7255 15.0605 16.6904C16.0438 16.5565 16.9928 16.2384 17.8573 15.7529C18.4409 15.422 19.5073 14.65 19.6481 14.4595C19.6884 14.3993 19.8846 14.1386 20.0707 13.8879C21.1321 12.4692 21.3836 10.9852 20.8454 9.36091C20.6844 8.87461 20.0204 7.4408 19.628 6.72891C19.3215 6.18062 19.0672 5.60491 18.8684 5.00934C18.4358 3.73094 17.792 2.56283 17.1078 1.8359C16.5897 1.28444 16.1823 0.968596 15.6641 0.727956C15.3724 0.592597 15.2466 0.562518 14.8643 0.547478C14.4921 0.532438 14.3512 0.502357 14.0645 0.377023C13.8203 0.27424 13.5679 0.192068 13.3099 0.131371C12.9176 0.0411309 11.9015 -0.0340684 11.6952 0.0160648ZM13.0534 3.55046C13.2373 3.61444 13.4143 3.69674 13.5816 3.79611C13.7627 3.90641 14.0041 4.00667 14.1249 4.02673C14.3864 4.06683 14.7335 4.2824 14.9096 4.51302C15.0124 4.66627 15.1 4.82914 15.1712 4.99931C15.317 5.35526 15.6138 6.50331 15.6641 6.87931L15.6943 7.13499L14.7386 7.11494C13.9136 7.09488 13.7677 7.10491 13.657 7.1751C13.5212 7.26534 13.491 7.44581 13.5916 7.54608C13.6319 7.58619 13.8582 7.59621 14.4066 7.57616C15.0404 7.5511 15.7496 7.59622 15.8251 7.6664C15.8301 7.67643 15.8503 7.7416 15.8704 7.81179L15.9006 7.94214L15.3472 7.97723C14.6229 8.01733 13.6822 8.18277 13.4407 8.30309C13.3233 8.36539 13.2136 8.4411 13.1138 8.52869C12.983 8.64901 12.9427 8.65904 12.4749 8.65904C12.0071 8.65904 11.9668 8.64901 11.8361 8.52869C11.5342 8.24795 11.0513 8.10757 10.0402 8.00731C9.86639 7.99317 9.69343 7.96974 9.52211 7.93712C9.51205 7.93211 9.54223 7.83685 9.5875 7.73158L9.66799 7.54107L10.4577 7.57115C11.3028 7.60624 11.3682 7.5912 11.3682 7.37062C11.3682 7.15504 11.1871 7.0999 10.4628 7.09488H9.80381L9.83902 6.90939C9.94466 6.32784 10.3622 5.27003 10.664 4.81382C10.9004 4.4679 11.5091 3.85627 11.7405 3.73595C12.2083 3.49531 12.6258 3.43515 13.0534 3.55046ZM16.2929 8.96987C16.4388 9.31579 16.4539 9.37595 16.4036 9.52635C16.303 9.81712 16.0464 10.158 15.8251 10.2884C15.6239 10.4037 15.5635 10.4137 14.9448 10.4137C14.2355 10.4137 14.0444 10.3686 13.8482 10.158C13.6671 9.96251 13.5262 9.58149 13.4961 9.21552C13.4709 8.88965 13.4759 8.86459 13.5866 8.80443C13.6734 8.76293 13.7645 8.73099 13.8582 8.70917C13.989 8.68411 14.0192 8.69915 14.0846 8.83451C14.1022 8.88396 14.135 8.9266 14.1784 8.95632C14.2217 8.98604 14.2734 9.00131 14.3261 8.99995C14.477 9.01499 14.487 9.02501 14.487 9.22053C14.487 9.49627 14.7436 9.76197 15.0152 9.76197C15.3774 9.76197 15.5887 9.55643 15.5937 9.21051C15.5957 9.09037 15.5681 8.97159 15.5132 8.86459C15.4327 8.75429 15.4327 8.74928 15.5384 8.80443C15.5937 8.83952 15.644 8.88464 15.644 8.90971C15.644 8.93979 15.7245 8.95984 15.8201 8.95984C16.0163 8.95984 16.1219 8.82949 16.0816 8.62395C16.0464 8.43845 16.1068 8.53872 16.2929 8.96987ZM11.3632 8.80944C11.4739 8.86459 11.4789 8.88965 11.4538 9.21552C11.4236 9.58149 11.2827 9.96251 11.1016 10.158C10.9054 10.3686 10.7143 10.4137 10.005 10.4137C9.39132 10.4137 9.3209 10.4037 9.13478 10.2934C8.9235 10.1681 8.78265 10.0076 8.63174 9.72187L8.54623 9.56144L8.7575 9.26565C8.93859 9.00997 8.9889 8.96987 9.11968 8.96987C9.2052 8.97488 9.28569 8.94981 9.29575 8.91472C9.32458 8.86721 9.36648 8.82894 9.41647 8.80443C9.51708 8.74928 9.51708 8.75429 9.43659 8.86459C9.38176 8.97159 9.35412 9.09037 9.35611 9.21051C9.36114 9.55643 9.57241 9.76197 9.9346 9.76197C10.2062 9.76197 10.4628 9.49627 10.4628 9.22053C10.4628 9.02501 10.4728 9.01499 10.6288 8.99995C10.7495 8.98992 10.8048 8.94981 10.8652 8.82949C10.9306 8.69413 10.9558 8.67909 11.0916 8.70917C11.1855 8.7326 11.2766 8.76623 11.3632 8.80944ZM12.7667 9.24059C12.9075 9.27067 12.9276 9.30075 12.9981 9.59653C13.159 10.2332 13.4256 10.6193 13.813 10.7997C14.1802 10.9652 15.312 11.0253 15.7496 10.9C16.137 10.7847 16.4941 10.539 16.6752 10.2533C16.7607 10.1229 16.8362 10.0177 16.8513 10.0177C16.8664 10.0177 16.9469 10.1079 17.0324 10.2132L17.1933 10.4137L17.0676 11.0003C16.811 12.2235 16.5847 12.7148 15.8503 13.6172C15.3372 14.2539 14.8643 14.6149 14.0595 15.0009C13.2546 15.3869 13.0182 15.4521 12.4749 15.4521C11.9367 15.4521 11.6952 15.3869 10.9205 15.0159C10.0654 14.6048 9.67805 14.3191 9.18508 13.7225C8.71223 13.156 8.35005 12.5845 8.19914 12.1684C8.06835 11.8174 7.79671 10.7195 7.79671 10.5491C7.79671 10.509 7.87217 10.3836 7.96774 10.2683L8.13877 10.0678L8.32992 10.3235C8.4758 10.514 8.61665 10.6293 8.8732 10.7596L9.22029 10.9401L10.0302 10.9351C10.7898 10.9351 10.8551 10.9251 11.1218 10.8047C11.5292 10.6193 11.7858 10.2433 11.9518 9.59653C12.0373 9.24059 12.0524 9.23056 12.4296 9.21552C12.5424 9.21582 12.6551 9.2242 12.7667 9.24059ZM6.79065 9.61659C6.75355 9.7493 6.70473 9.87848 6.64477 10.0026C6.54919 10.2232 6.50895 10.3886 6.52404 10.4739C6.55422 10.6393 6.82083 10.8198 7.08744 10.8599C7.25847 10.89 7.2635 10.9 7.34398 11.2409C7.38422 11.4364 7.46974 11.6721 7.53513 11.7673C7.67095 11.9779 7.6458 12.1433 7.46471 12.3037C7.30374 12.4491 7.18301 12.4491 7.01198 12.3037C6.87616 12.1834 6.83592 11.9929 6.90634 11.7924C6.9315 11.7122 6.88119 11.6269 6.66992 11.4063C6.40834 11.1356 6.18701 10.7045 6.18701 10.4588C6.18701 10.2082 6.31277 9.89232 6.47374 9.73189C6.63974 9.56645 6.79065 9.51131 6.79065 9.61659ZM18.5515 9.79707C18.6572 9.94747 18.7628 10.2683 18.7628 10.4488C18.7628 10.6995 18.5465 11.1306 18.2799 11.4063C18.0686 11.6269 18.0183 11.7122 18.0435 11.7924C18.1139 11.9929 18.0737 12.1834 17.9378 12.3037C17.7567 12.4591 17.626 12.4491 17.4449 12.2686C17.2738 12.0932 17.2738 11.9277 17.4499 11.6771C17.5052 11.6019 17.5857 11.3713 17.631 11.1657L17.7115 10.7897L17.9077 10.8047C18.0391 10.8216 18.1723 10.7916 18.2837 10.7201C18.3951 10.6485 18.4775 10.54 18.5163 10.4137C18.5666 10.2433 18.5616 10.1781 18.471 9.93744C18.3554 9.64165 18.3956 9.57648 18.5515 9.79707ZM11.7455 15.9534C11.9856 16.002 12.2299 16.0272 12.4749 16.0286C12.7199 16.0272 12.9642 16.002 13.2043 15.9534C13.3703 15.9133 13.5212 15.8832 13.5363 15.8782C13.5564 15.8782 13.5866 15.9584 13.6067 16.0587C13.657 16.3244 13.8432 16.7205 14.0595 17.0263C14.2808 17.3321 14.2959 17.307 13.7224 17.5276C12.92 17.8384 12.0298 17.8384 11.2274 17.5276C10.664 17.312 10.6791 17.3471 10.9356 16.9661C11.162 16.6352 11.3682 16.159 11.3682 15.9785C11.3682 15.8632 11.3582 15.8632 11.7455 15.9534Z" fill="#717171"/>
<path d="M11.9925 10.7143C11.8617 10.7644 11.8013 10.98 11.8768 11.1203C11.9925 11.3459 12.5106 11.4362 12.8526 11.2958C13.0689 11.2056 13.1545 11.0401 13.084 10.8496C13.0186 10.6792 12.8325 10.6341 12.6313 10.7343C12.4905 10.8095 12.4603 10.8095 12.3245 10.7393C12.1585 10.6541 12.1434 10.6541 11.9925 10.7143Z" fill="#717171"/>
<path d="M11.3136 12.0634C11.1174 12.2639 11.1225 12.4544 11.3438 12.8504C11.6004 13.3067 11.9625 13.5222 12.4756 13.5222C12.9887 13.5222 13.3761 13.2866 13.6225 12.8304C13.8288 12.4494 13.8288 12.2589 13.6376 12.0634L13.4918 11.918H11.4595L11.3136 12.0634ZM13.1698 12.5797C13.1547 12.6148 13.0541 12.7101 12.9435 12.7903C12.7825 12.9006 12.6819 12.9307 12.4756 12.9307C12.2694 12.9307 12.1688 12.9006 12.0078 12.7903C11.6507 12.5396 11.6859 12.5196 12.4756 12.5196C13.0239 12.5196 13.1849 12.5346 13.1698 12.5797Z" fill="#717171"/>
<path d="M2.93771 17.427C2.74152 17.5474 2.61577 17.7178 2.61577 17.8682C2.61577 18.0236 2.56043 18.0136 2.38437 17.8281C2.21837 17.6476 1.79582 17.4321 1.61473 17.4321C1.42358 17.4321 1.08152 17.6175 1.00103 17.7679C0.955761 17.8582 0.93564 18.0286 0.94067 18.2943L0.955761 18.6854H0.7797C0.422547 18.6854 0 19.0062 0 19.2719C0 19.5828 0.326971 19.9287 1.38837 20.7258C1.7757 21.0216 1.81092 21.0617 2.02722 21.5079C2.2888 22.0393 2.51516 22.2749 2.98801 22.5106C3.28983 22.661 3.27474 22.6359 3.42565 23.2726C3.51116 23.6386 3.64195 23.8291 3.87335 23.9193C4.05947 23.9895 4.86935 23.9995 12.1784 23.9995C20.9714 23.9995 20.4885 24.0146 20.7149 23.7238C20.8909 23.5032 20.896 23.3077 20.7501 22.7111C20.5287 21.8338 20.2873 21.3475 19.583 20.3448C19.2762 19.9086 18.5065 19.2218 18.0991 19.0163C17.9029 18.916 17.6866 18.7907 17.6112 18.7405C17.42 18.6102 15.9763 17.8331 15.9159 17.8331C15.8908 17.8331 15.8053 18.0537 15.7248 18.3244C15.5437 18.9411 15.2419 19.4324 14.7137 19.9788C14.3012 20.41 13.3605 21.0918 13.1794 21.0918C13.1191 21.0918 13.0487 21.157 13.0034 21.2422C12.9078 21.4227 12.6513 21.5931 12.4752 21.5931C12.2991 21.5931 12.0426 21.4227 11.947 21.2422C11.9017 21.157 11.8313 21.0918 11.776 21.0918C11.62 21.0918 10.8001 20.5253 10.3876 20.1342C9.96003 19.7282 9.38658 18.916 9.31112 18.6102C9.28597 18.4999 9.22058 18.2693 9.17027 18.0988L9.07973 17.788L8.17427 18.2693C7.67627 18.53 7.2336 18.7756 7.19336 18.8107C7.09542 18.8792 6.99095 18.938 6.88148 18.9862C6.71541 19.0692 6.56002 19.1718 6.41869 19.292C6.34146 19.3652 6.25722 19.4307 6.16717 19.4875C6.15208 19.4875 6.13699 19.3772 6.13699 19.2369C6.13699 18.5601 5.90057 18.1891 5.44281 18.1439C5.30565 18.1245 5.16578 18.1454 5.04038 18.2041C4.86432 18.2943 4.80899 18.3796 4.75365 18.6353C4.73856 18.7305 4.69832 18.901 4.66814 19.0113L4.61783 19.2068L4.45183 18.7004C4.35626 18.4247 4.23553 18.0938 4.17517 17.9635C3.92868 17.4421 3.3351 17.1864 2.93771 17.427ZM3.56147 18.1139C3.70735 18.2893 3.95886 19.0062 4.2305 20.0139C4.31601 20.3448 4.42165 20.6657 4.45686 20.7258C4.48145 20.7617 4.51446 20.7911 4.55303 20.8114C4.5916 20.8318 4.63457 20.8424 4.6782 20.8424C4.72183 20.8424 4.76479 20.8318 4.80336 20.8114C4.84194 20.7911 4.87495 20.7617 4.89953 20.7258C4.97499 20.6105 5.10075 19.9538 5.16111 19.3622C5.19129 19.0413 5.2919 18.6854 5.35226 18.6854C5.38643 18.6932 5.42004 18.7032 5.45287 18.7155C5.52329 18.7405 5.53335 18.8809 5.53335 19.7382C5.53335 20.3247 5.55347 20.791 5.58869 20.8762C5.65775 21.0159 5.7403 21.1485 5.83517 21.2723C5.96891 21.4504 6.07725 21.6461 6.15711 21.8538C6.26778 22.1396 6.48911 23.1272 6.48911 23.3277C6.48911 23.3879 6.31305 23.3979 5.27178 23.3879L4.05444 23.3728L3.98904 23.1021C3.9488 22.9567 3.92868 22.8264 3.94377 22.8114C3.95383 22.8013 4.10474 22.8164 4.27074 22.8515C4.68323 22.9317 4.82911 22.8715 4.82911 22.6259C4.83174 22.548 4.8107 22.4711 4.76874 22.4053C4.73353 22.3802 4.47699 22.305 4.20032 22.2499C3.03328 21.9992 2.87231 21.8989 2.51516 21.1971C2.29383 20.7509 1.51916 18.4999 1.49904 18.2342C1.48394 18.0788 1.49904 18.0587 1.61976 18.0437C1.7254 18.0286 1.80589 18.0788 1.97189 18.2442C2.23346 18.5049 2.45983 18.9361 2.81698 19.8385C3.15904 20.7108 3.12886 20.6657 3.30492 20.6807C3.47092 20.6957 3.62183 20.5854 3.62183 20.4501C3.62183 20.405 3.50613 19.9688 3.37031 19.4875C3.0685 18.4498 3.00813 18.0487 3.13892 17.9585C3.25965 17.8682 3.4005 17.9183 3.56147 18.1139ZM1.08655 19.282C1.20728 19.3522 1.25758 19.4424 1.32297 19.668C1.36825 19.8284 1.39843 19.9688 1.38334 19.9788C1.32297 20.039 0.603638 19.4173 0.603638 19.307C0.603638 19.1667 0.875276 19.1516 1.08655 19.282ZM7.37445 19.5226C7.299 19.9889 7.24366 20.7158 7.18833 22.0042C7.15312 22.7712 7.1179 23.3879 7.10784 23.3779C7.09778 23.3728 7.04748 23.1071 6.98711 22.7913C6.84124 21.9791 6.63499 21.3876 6.36336 21.0366C6.24263 20.8712 6.13196 20.6707 6.11184 20.5854C6.07663 20.4401 6.10178 20.3999 6.39354 20.1042C6.56316 19.9294 6.74651 19.7685 6.94184 19.6229C7.04363 19.5555 7.14108 19.4818 7.2336 19.4023C7.35433 19.287 7.40463 19.3271 7.37445 19.5226ZM17.9884 19.5978C18.4412 19.9337 18.9593 20.4651 19.3718 21.0116C19.6384 21.3625 19.7541 21.5731 19.915 22.0142C20.1364 22.6058 20.2722 23.0971 20.2722 23.2826V23.3979H17.8275L17.7621 22.0042C17.7067 20.7158 17.6514 19.9939 17.5759 19.5226C17.5608 19.4223 17.5659 19.3371 17.5961 19.3371C17.6212 19.3371 17.7973 19.4524 17.9884 19.5978Z" fill="#717171"/>
</svg>
