<svg width="17" height="19" viewBox="0 0 17 19" fill="none" xmlns="http://www.w3.org/2000/svg">
<path d="M7.60476 6.83343C6.88585 7.36669 6.01512 7.65581 5.12002 7.65847C4.18845 7.65847 3.33377 7.34608 2.63448 6.83343C2.03373 7.33406 1.43457 8.05097 0.944349 8.93449C-0.195491 10.9875 -0.32125 13.0933 0.663995 13.6396C1.10295 13.8895 1.56593 13.7021 2.04334 13.2423C1.95396 13.7377 1.90919 14.2401 1.90957 14.7434C1.90957 17.0968 2.82272 18.9984 3.94654 18.9984C4.6242 18.9984 4.95982 18.3055 5.12082 17.2458C5.28103 18.2983 5.61745 18.9984 6.2903 18.9984C7.40932 18.9984 8.32968 17.096 8.32968 14.7434C8.32968 14.2148 8.28002 13.7101 8.19511 13.2431C8.67572 13.7037 9.1371 13.8944 9.57765 13.6412C10.5605 13.0949 10.4331 10.9899 9.2941 8.93609C8.80548 8.05177 8.20472 7.33567 7.60396 6.83503L7.60476 6.83343ZM5.11922 6.85746C5.56949 6.8573 6.01532 6.76846 6.43125 6.59601C6.84718 6.42355 7.22508 6.17086 7.54335 5.85236C7.86163 5.53386 8.11405 5.15579 8.28622 4.73974C8.45838 4.32369 8.54691 3.8778 8.54675 3.42753C8.5466 2.97726 8.45775 2.53144 8.2853 2.1155C8.11284 1.69957 7.86015 1.32168 7.54165 1.0034C7.22315 0.685127 6.84508 0.432701 6.42903 0.260537C6.01298 0.088373 5.56709 -0.000157582 5.11682 2.10559e-07C4.20725 0.000318892 3.33506 0.361949 2.69213 1.00534C2.04919 1.64872 1.68817 2.52117 1.68849 3.43073C1.68881 4.3403 2.05044 5.21249 2.69383 5.85543C3.33721 6.49836 4.20965 6.85938 5.11922 6.85906V6.85746ZM13.6636 11.239C14.8715 11.239 15.852 10.2586 15.852 9.04903C15.852 7.8395 14.8699 6.85746 13.6628 6.85746C13.0816 6.85767 12.5243 7.08864 12.1134 7.49959C11.7024 7.91054 11.4715 8.46786 11.4712 9.04903C11.4717 9.63021 11.7028 10.1874 12.1139 10.5982C12.525 11.009 13.0824 11.2398 13.6636 11.2398V11.239ZM16.331 12.5663C16.0186 12.0016 15.6357 11.5434 15.2512 11.223C14.8027 11.5514 14.258 11.7516 13.6628 11.7516C13.0669 11.7516 12.5206 11.5514 12.0744 11.223C11.6899 11.5434 11.307 12.0016 10.993 12.5663C10.2641 13.8783 10.184 15.224 10.8136 15.5733C11.094 15.7335 11.3903 15.6133 11.6947 15.3202C11.639 15.6367 11.6112 15.9575 11.6114 16.279C11.6114 17.7849 12.1946 19 12.9131 19C13.3456 19 13.5619 18.557 13.6644 17.8802C13.7669 18.553 13.9816 18.9992 14.4126 18.9992C15.1279 18.9992 15.7158 17.7833 15.7158 16.279C15.7158 15.9425 15.6838 15.6189 15.6293 15.321C15.9361 15.6149 16.2317 15.7375 16.5136 15.5749C17.14 15.2272 17.0583 13.8807 16.331 12.5687V12.5663Z" fill="#00B9E3"/>
</svg>
