<svg width="102" height="139" viewBox="0 0 102 139" fill="none" xmlns="http://www.w3.org/2000/svg">
<path d="M0.285156 116.614V106.829H3.49022V112.597C3.83253 112.131 4.28454 111.756 4.80623 111.506C5.32791 111.256 5.90317 111.139 6.48102 111.164C8.87398 111.164 11.6091 112.918 11.6091 116.592C11.6091 119.989 9.25914 122.275 5.90422 122.275C2.67651 122.276 0.285156 120.161 0.285156 116.614ZM8.36127 116.721C8.36127 115.204 7.37889 114.157 5.92558 114.157C4.47227 114.157 3.49022 115.204 3.49022 116.721C3.49022 118.238 4.47291 119.285 5.92558 119.285C7.37826 119.285 8.3603 118.238 8.3603 116.721H8.36127Z" fill="#00B9E3"/>
<path d="M13.7227 116.913V111.443H16.9277V116.913C16.9277 118.58 17.7395 119.285 18.9365 119.285C20.1334 119.285 20.9452 118.58 20.9452 116.913V111.443H24.1506V116.913C24.1506 120.46 22.0564 122.276 18.9371 122.276C15.8178 122.276 13.7227 120.481 13.7227 116.913Z" fill="#00B9E3"/>
<path d="M26.6914 117.833V107.705H29.8965V111.444H34.896V114.328H29.8965V117.833C29.8965 118.944 30.4085 119.285 31.1142 119.285C31.8198 119.285 32.3315 118.944 32.3315 117.833V117.514H35.5366V117.833C35.5366 120.845 33.7424 122.276 31.1142 122.276C28.4859 122.276 26.6914 120.845 26.6914 117.833Z" fill="#00B9E3"/>
<path d="M37.5234 117.833V107.705H40.7285V111.444H45.7277V114.328H40.7285V117.833C40.7285 118.944 41.2406 119.285 41.9459 119.285C42.6512 119.285 43.1636 118.944 43.1636 117.833V117.514H46.3686V117.833C46.3686 120.845 44.5741 122.276 41.9459 122.276C39.3176 122.276 37.5234 120.845 37.5234 117.833Z" fill="#00B9E3"/>
<path d="M47.9258 116.722C47.9258 113.517 50.2763 111.166 53.6093 111.166C56.9422 111.166 59.229 113.517 59.229 116.722V117.619H51.2578C51.5128 118.859 52.4547 119.414 53.6083 119.414C54.5269 119.414 55.2108 119.223 55.617 118.645H58.9289C58.2453 120.824 56.2372 122.277 53.6089 122.277C50.2763 122.277 47.9258 119.926 47.9258 116.722ZM55.9384 115.589C55.575 114.5 54.7201 114.03 53.6109 114.03C52.5016 114.03 51.6455 114.521 51.325 115.589H55.9384Z" fill="#00B9E3"/>
<path d="M61.3438 115.995C61.3438 112.705 63.2667 111.166 66.0866 111.166C68.9065 111.166 70.8084 112.683 70.8304 116.016V116.08H67.6251V115.995C67.6251 114.585 66.9835 114.157 66.0863 114.157C65.1891 114.157 64.5485 114.585 64.5485 115.995V121.999H61.3438V115.995Z" fill="#00B9E3"/>
<path d="M72.9219 111.316C72.9219 108.111 74.8449 106.552 77.6651 106.552C80.507 106.552 82.4086 108.132 82.4086 111.316H79.2035C79.2035 109.97 78.5629 109.542 77.6651 109.542C76.7672 109.542 76.1269 109.991 76.1269 111.316V112.919H81.1051V115.803H76.1269V121.999H72.9219V111.316ZM83.669 106.83H86.874V121.999H83.669V106.83Z" fill="#00B9E3"/>
<path d="M89.8429 123.024H93.048C93.3684 123.728 93.9239 124.006 94.9496 124.006C96.3596 124.006 96.9791 123.344 96.9791 121.742V120.696C96.701 121.139 96.3126 121.502 95.8519 121.749C95.3912 121.996 94.8741 122.119 94.3515 122.106C92.1288 122.106 89.7578 120.611 89.7578 116.744V111.444H92.9629V116.744C92.9629 118.41 93.7747 119.115 94.9716 119.115C96.1252 119.115 96.9804 118.368 96.9804 116.744V111.444H100.185V121.637C100.185 125.311 97.8349 126.786 94.9509 126.786C92.4498 126.786 90.377 125.631 89.8429 123.024Z" fill="#00B9E3"/>
<path d="M38.9651 67.0019C38.4888 67.0027 38.0186 66.895 37.5901 66.6872C37.1615 66.4794 36.7859 66.1769 36.4915 65.8024C26.3802 52.9615 30.5995 32.0833 46.524 16.1577C54.237 8.4448 63.4023 3.04289 72.331 0.948692C81.7979 -1.27336 89.9432 0.438526 95.2696 5.76329C100.596 11.0881 102.305 19.2356 100.084 28.7016C97.9887 37.6293 92.5868 46.7953 84.8751 54.5085C80.369 59.0681 75.1734 62.8902 69.4789 65.8343C69.1107 66.0237 68.7088 66.1385 68.2961 66.1722C67.8834 66.2059 67.4682 66.1578 67.0742 66.0306C66.6801 65.9035 66.3151 65.6998 66 65.4312C65.6849 65.1627 65.4258 64.8345 65.2378 64.4656C65.0498 64.0968 64.9364 63.6944 64.9043 63.2816C64.8721 62.8688 64.9217 62.4538 65.0503 62.0602C65.1789 61.6667 65.384 61.3024 65.6537 60.9882C65.9234 60.6741 66.2525 60.4163 66.622 60.2296C71.7226 57.5739 76.38 54.1426 80.4281 50.0583C87.3242 43.1623 92.1299 35.0667 93.9623 27.2626C95.6681 19.9951 94.5541 13.9392 90.8245 10.2103C87.0949 6.48135 81.0394 5.36664 73.7722 7.07216C65.9677 8.90362 57.8719 13.7103 50.9761 20.6063C37.3403 34.2419 33.3288 51.6124 41.4381 61.9096C41.8036 62.3737 42.0311 62.9312 42.0945 63.5185C42.1579 64.1058 42.0547 64.6991 41.7967 65.2304C41.5386 65.7618 41.1362 66.2097 40.6354 66.523C40.1347 66.8363 39.5558 67.0023 38.9651 67.0019Z" fill="#FFCDBD"/>
<path d="M70.9631 80.783C62.7183 80.783 53.3751 78.2781 46.3267 73.8713C41.6887 70.9717 36.9905 66.8222 34.3565 63.2999C27.0839 53.575 24.5532 44.9568 25.3299 32.56C25.8652 24.0149 28.5461 16.0755 32.878 10.2017C37.5121 3.92041 43.4928 0.676748 49.7259 1.06893C54.3208 1.35845 58.5899 3.62386 62.073 7.62031C62.6211 8.24925 62.8968 9.07015 62.8396 9.90242C62.7824 10.7347 62.397 11.5102 61.768 12.0582C61.1391 12.6063 60.3182 12.882 59.4859 12.8248C58.6536 12.7676 57.8782 12.3822 57.3301 11.7532C55.689 9.86979 52.9683 7.57632 49.3299 7.34739C45.3099 7.09231 41.263 9.43359 37.941 13.936C34.3179 18.8463 32.0691 25.6011 31.6086 32.9535C30.9276 43.8281 33.0374 51.0322 39.3943 59.5323C41.2018 61.9492 45.0774 65.6708 49.6612 68.5372C57.7979 73.6245 69.8685 75.836 77.7361 73.6809C79.6635 73.1532 82.17 72.1201 83.1658 70.1956C83.3373 69.8056 83.4958 68.6354 83.235 68.065C83.1932 67.9732 83.1712 67.9228 82.948 67.8552C82.5528 67.7348 82.1852 67.5377 81.8662 67.2753C81.5472 67.0128 81.2831 66.69 81.0888 66.3255C80.6965 65.5892 80.6127 64.7272 80.8559 63.9291C81.0991 63.131 81.6493 62.4622 82.3856 62.0699C83.1219 61.6775 83.9839 61.5938 84.782 61.837C85.7311 62.1135 86.6063 62.5988 87.3435 63.2574C88.0807 63.916 88.6613 64.7311 89.0428 65.6431C90.2158 68.426 89.5128 71.6183 88.7542 73.0853C87.137 76.21 83.902 78.5149 79.3989 79.7492C76.645 80.4647 73.8084 80.8124 70.9631 80.783Z" fill="#FFCDBD"/>
<path d="M34.4285 98.8897C33.1924 98.8894 31.9572 98.8236 30.728 98.6926C23.9697 97.9735 17.5763 95.2666 12.3565 90.914C7.13659 86.5614 3.32464 80.7586 1.40266 74.2396C-0.519317 67.7205 -0.465008 60.7779 1.55873 54.2897C3.58246 47.8015 7.48473 42.0591 12.7721 37.7887C13.4063 37.2766 14.218 37.0374 15.0286 37.1237C15.8392 37.2101 16.5822 37.6149 17.0944 38.2491C17.6065 38.8834 17.8457 39.6951 17.7593 40.5057C17.673 41.3163 17.2682 42.0593 16.6339 42.5715C13.722 44.89 11.2975 47.7617 9.50014 51.0212C7.70278 54.2808 6.56807 57.8637 6.16136 61.5636C5.75465 65.2636 6.08397 69.0075 7.13037 72.5796C8.17677 76.1517 9.91955 79.4815 12.2583 82.3772C14.5971 85.2729 17.4857 87.6773 20.7578 89.4518C24.0298 91.2264 27.6205 92.336 31.3232 92.7169C35.0259 93.0978 38.7674 92.7423 42.3321 91.671C45.8969 90.5997 49.2144 88.8337 52.0937 86.4747C52.7314 85.9597 53.3516 85.4132 53.9366 84.8511C54.2277 84.5715 54.5709 84.352 54.9467 84.2051C55.3226 84.0581 55.7237 83.9867 56.1271 83.9947C56.5306 84.0028 56.9285 84.0903 57.2982 84.2522C57.6679 84.414 58.002 84.6471 58.2816 84.9381C58.5612 85.2291 58.7807 85.5724 58.9276 85.9482C59.0746 86.3241 59.146 86.7252 59.1379 87.1287C59.1298 87.5321 59.0424 87.93 58.8805 88.2997C58.7186 88.6693 58.4855 89.0035 58.1945 89.2831C57.4835 89.9667 56.7301 90.6305 55.9559 91.2561C49.8706 96.1989 42.2684 98.8947 34.4285 98.8897Z" fill="#00B9E3"/>
<path d="M33.6989 86.0333C29.9902 86.0344 26.3476 85.0517 23.1427 83.1856C19.9377 81.3195 17.2852 78.6366 15.4555 75.4106C13.6259 72.1847 12.6847 68.5312 12.728 64.8228C12.7713 61.1144 13.7974 57.4838 15.7018 54.3015C16.1252 53.6122 16.8033 53.1177 17.589 52.9252C18.3747 52.7327 19.2046 52.8578 19.8987 53.2733C20.5928 53.6888 21.095 54.3612 21.2965 55.1446C21.498 55.928 21.3824 56.7593 20.9749 57.4581C19.3552 60.1642 18.6413 63.3165 18.9371 66.4563C19.2329 69.5962 20.5229 72.5598 22.6194 74.9158C24.7159 77.2718 27.5095 78.8974 30.5937 79.5559C33.678 80.2144 36.8919 79.8717 39.7678 78.5773C40.5106 78.2419 41.3563 78.2153 42.1187 78.5034C42.8811 78.7914 43.4979 79.3705 43.8333 80.1133C44.1687 80.8561 44.1953 81.7018 43.9073 82.4642C43.6192 83.2266 43.0401 83.8434 42.2973 84.1788C39.5954 85.4009 36.6642 86.0331 33.6989 86.0333Z" fill="#00B9E3"/>
<path d="M22.8828 126.207H24.0683V131.728C24.6878 130.472 25.8554 129.8 27.3773 129.8C29.7129 129.8 31.5179 131.215 31.5179 134.205V138.771H30.3324V134.205C30.3324 132.047 29.0937 130.896 27.2003 130.896C25.3246 130.896 24.0683 132.082 24.0683 134.205V138.771H22.8828V126.207Z" fill="#00B9E3"/>
<path d="M33.4297 134.399C33.4297 131.745 35.3747 129.799 38.1365 129.799C40.8984 129.799 42.808 131.744 42.808 134.399V134.789H34.6506C34.81 136.611 36.1724 137.903 38.1365 137.903C39.5168 137.903 40.5786 137.337 41.1449 136.328H42.4375C41.765 137.938 40.1736 139 38.1375 139C35.3763 139 33.4297 137.053 33.4297 134.399ZM41.5696 133.727C41.2861 131.957 39.9061 130.896 38.1365 130.896C36.314 130.896 34.9516 132.012 34.6863 133.727H41.5696Z" fill="#00B9E3"/>
<path d="M44.3633 134.453C44.3633 131.728 46.3083 129.798 49.0701 129.798C51.832 129.798 53.7591 131.691 53.7591 134.453V138.771H52.662V136.612C52.0428 138.169 50.5917 139 48.8932 139C46.4336 139 44.3633 137.249 44.3633 134.453ZM52.5736 134.4C52.5736 133.707 52.3682 133.03 51.9832 132.453C51.5982 131.877 51.051 131.428 50.4109 131.163C49.7707 130.898 49.0662 130.828 48.3866 130.964C47.707 131.099 47.0827 131.432 46.5928 131.922C46.1028 132.412 45.7691 133.037 45.6339 133.716C45.4988 134.396 45.5681 135.1 45.8333 135.741C46.0985 136.381 46.5475 136.928 47.1237 137.313C47.6998 137.698 48.3772 137.903 49.0701 137.903C49.5356 137.923 50.0002 137.846 50.4343 137.677C50.8685 137.508 51.2629 137.251 51.5924 136.922C51.9219 136.592 52.1794 136.198 52.3485 135.764C52.5176 135.33 52.5947 134.865 52.5749 134.4H52.5736Z" fill="#00B9E3"/>
<path d="M56.3594 126.207H57.5449V138.77H56.3594V126.207Z" fill="#00B9E3"/>
<path d="M60.1484 135.55V126.933H61.3339V130.029H66.4833V131.108H61.3339V135.55C61.3339 137.144 62.2187 137.903 63.5812 137.903C64.9261 137.903 65.8287 137.16 65.8287 135.55V135.355H66.9785V135.55C66.9785 137.85 65.5985 139 63.5812 139C61.5463 139 60.1484 137.85 60.1484 135.55Z" fill="#00B9E3"/>
<path d="M69.2773 126.207H70.4631V131.728C71.0823 130.472 72.2487 129.8 73.7718 129.8C76.1077 129.8 77.9124 131.215 77.9124 134.205V138.771H76.7269V134.205C76.7269 132.047 75.4882 130.896 73.5949 130.896C71.7194 130.896 70.4631 132.082 70.4631 134.205V138.771H69.2773V126.207Z" fill="#00B9E3"/>
</svg>
