<svg width="21" height="19" viewBox="0 0 21 19" fill="none" xmlns="http://www.w3.org/2000/svg">
<path d="M10.4031 12.1246C11.1184 12.1246 11.8045 11.8405 12.3103 11.3346C12.8161 10.8288 13.1003 10.1427 13.1003 9.42739C13.1003 9.3484 13.0967 9.27013 13.0899 9.19283L10.1685 12.1143C10.2458 12.121 10.3238 12.1246 10.4031 12.1246ZM19.3309 1.08423L18.3021 0.0563842C18.266 0.0202806 18.217 0 18.166 0C18.1149 0 18.0659 0.0202806 18.0298 0.0563842L15.3971 2.68981C13.9447 1.94759 12.3122 1.57648 10.4994 1.57648C5.87072 1.57648 2.41728 3.98714 0.139065 8.80847C0.0474924 9.00238 0 9.21416 0 9.4286C0 9.64304 0.0474924 9.85482 0.139065 10.0487C1.04939 11.9662 2.14554 13.503 3.42754 14.6593L0.879845 17.2061C0.843742 17.2422 0.823461 17.2912 0.823461 17.3423C0.823461 17.3933 0.843742 17.4423 0.879845 17.4784L1.90793 18.5065C1.94406 18.5426 1.99304 18.5629 2.04412 18.5629C2.09519 18.5629 2.14418 18.5426 2.1803 18.5065L19.3309 1.35684C19.3489 1.33895 19.3631 1.3177 19.3728 1.29431C19.3825 1.27092 19.3875 1.24585 19.3875 1.22054C19.3875 1.19522 19.3825 1.17015 19.3728 1.14676C19.3631 1.12337 19.3489 1.10212 19.3309 1.08423ZM6.16452 9.42739C6.16446 8.6953 6.35402 7.97567 6.71473 7.3386C7.07545 6.70154 7.59503 6.16877 8.22284 5.7922C8.85066 5.41562 9.56532 5.20808 10.2972 5.1898C11.0291 5.17151 11.7532 5.3431 12.399 5.68785L11.2281 6.85875C10.7559 6.70754 10.2512 6.68934 9.7693 6.80612C9.28742 6.92289 8.84702 7.17015 8.49642 7.52075C8.14581 7.87136 7.89856 8.31176 7.78178 8.79364C7.665 9.27552 7.68321 9.78025 7.83441 10.2525L6.66351 11.4234C6.33493 10.8094 6.1635 10.1237 6.16452 9.42739Z" fill="#C9C9C9"/>
<path d="M20.8586 8.80559C20.0108 7.02027 19.0019 5.56448 17.8316 4.43822L14.3604 7.90972C14.653 8.67462 14.7178 9.50788 14.5471 10.3088C14.3764 11.1098 13.9774 11.8442 13.3983 12.4233C12.8192 13.0024 12.0848 13.4014 11.2838 13.5721C10.4829 13.7428 9.6496 13.678 8.8847 13.3854L5.94037 16.3297C7.30633 16.9618 8.82562 17.2778 10.4982 17.2778C15.1269 17.2778 18.5803 14.8672 20.8586 10.0458C20.9501 9.85194 20.9976 9.64016 20.9976 9.42572C20.9976 9.21127 20.9501 8.99949 20.8586 8.80559Z" fill="#C9C9C9"/>
</svg>
