<svg width="35" height="24" viewBox="0 0 35 24" fill="none" xmlns="http://www.w3.org/2000/svg">
<g clip-path="url(#clip0_206_19553)">
<path d="M33.3795 3.74333C33.1837 3.01981 32.8018 2.36019 32.2718 1.83017C31.7418 1.30015 31.0822 0.918215 30.3587 0.7224C27.7099 0 17.0494 0 17.0494 0C17.0494 0 6.38829 0.0218666 3.73949 0.744267C3.01596 0.940093 2.35635 1.32205 1.82635 1.85209C1.29635 2.38214 0.914455 3.04178 0.718693 3.76533C-0.0825077 8.47173 -0.393308 15.6432 0.740693 20.1613C0.936476 20.8849 1.31838 21.5445 1.84838 22.0745C2.37838 22.6045 3.03798 22.9865 3.76149 23.1823C6.4103 23.9047 17.0711 23.9047 17.0711 23.9047C17.0711 23.9047 27.7318 23.9047 30.3804 23.1823C31.104 22.9865 31.7636 22.6045 32.2936 22.0745C32.8237 21.5445 33.2056 20.8849 33.4014 20.1613C34.2464 15.4483 34.5068 8.28133 33.3795 3.74347V3.74333Z" fill="#FF0000"/>
<path d="M13.6562 17.0749L22.5001 11.9525L13.6564 6.83008L13.6562 17.0749Z" fill="white"/>
</g>
<defs>
<clipPath id="clip0_206_19553">
<rect width="34.1333" height="24" fill="white"/>
</clipPath>
</defs>
</svg>
