<svg width="19" height="20" viewBox="0 0 19 20" fill="none" xmlns="http://www.w3.org/2000/svg">
<path fill-rule="evenodd" clip-rule="evenodd" d="M16.7661 10.7234C16.8027 10.4181 16.8272 10.1005 16.8272 9.77075C16.8272 9.44098 16.8027 9.12343 16.7539 8.8181L18.818 7.20593C19.0012 7.05936 19.05 6.79067 18.9401 6.58304L16.9859 3.19992C16.8638 2.98008 16.6073 2.9068 16.3875 2.98008L13.957 3.95715C13.4441 3.56632 12.9067 3.24877 12.3082 3.0045L11.9418 0.415257C11.9052 0.170988 11.6975 0 11.4533 0H7.54497C7.3007 0 7.10528 0.170988 7.06864 0.415257L6.70224 3.0045C6.10378 3.24877 5.55418 3.57854 5.05342 3.95715L2.62295 2.98008C2.40311 2.89458 2.14663 2.98008 2.02449 3.19992L0.0703437 6.58304C-0.0517907 6.80288 -0.00293693 7.05936 0.192478 7.20593L2.25655 8.8181C2.20769 9.12343 2.17105 9.4532 2.17105 9.77075C2.17105 10.0883 2.19548 10.4181 2.24433 10.7234L0.180265 12.3356C-0.00293694 12.4821 -0.0517907 12.7508 0.0581302 12.9585L2.01228 16.3416C2.13441 16.5614 2.3909 16.6347 2.61074 16.5614L5.04121 15.5843C5.55418 15.9752 6.09157 16.2927 6.69002 16.537L7.05643 19.1262C7.10528 19.3705 7.3007 19.5415 7.54497 19.5415H11.4533C11.6975 19.5415 11.9052 19.3705 11.9296 19.1262L12.296 16.537C12.8944 16.2927 13.4441 15.963 13.9448 15.5843L16.3753 16.5614C16.5951 16.6469 16.8516 16.5614 16.9737 16.3416L18.9279 12.9585C19.05 12.7386 19.0012 12.4821 18.8058 12.3356L16.7661 10.7234ZM9.49911 13.4348C7.4839 13.4348 5.83508 11.786 5.83508 9.77075C5.83508 7.75553 7.4839 6.10672 9.49911 6.10672C11.5143 6.10672 13.1631 7.75553 13.1631 9.77075C13.1631 11.786 11.5143 13.4348 9.49911 13.4348Z" fill="#606970"/>
</svg>
