<svg width="76" height="76" viewBox="0 0 76 76" fill="none" xmlns="http://www.w3.org/2000/svg">
<circle cx="38" cy="38" r="37.85" fill="white" stroke="#868686" stroke-width="0.3"/>
<path d="M48.4575 25.1712L37.6073 21.1992L26.8762 25.1116C25.5059 25.7736 24.3011 26.1775 24.3011 27.4882V34.0156C24.2797 38.5864 25.5041 43.0767 27.8428 47.004C30.1459 50.9309 33.5978 54.057 37.7331 55.9609C42.1221 54.4979 45.399 50.5987 47.4049 47.2622C49.7447 43.333 50.9692 38.8402 50.9466 34.2671V28.4018C51.0017 27.6514 50.7783 26.9071 50.3191 26.3111C49.8599 25.7151 49.1971 25.3093 48.4575 25.1712Z" fill="#EBEBEB"/>
<path d="M48.4564 25.1707C48.685 25.2233 48.907 25.301 49.1184 25.4024C49.7803 25.6661 50.3206 26.1663 50.6344 26.8058C50.849 27.2731 50.9596 27.7812 50.9588 28.2953C50.9588 28.8514 50.9588 29.4538 50.9588 30.1092C50.9588 31.4332 50.9588 32.9029 50.9588 34.5579C50.9437 38.5194 49.9981 42.4219 48.1982 45.9509C47.1194 48.0666 45.7587 50.0263 44.1534 51.7765C42.4016 53.7136 40.2045 55.195 37.7519 56.0928H37.7055H37.6526C34.09 54.4621 31.0243 51.9149 28.7685 48.7115C26.0969 44.94 24.5247 40.5008 24.2272 35.8885C24.1477 34.8028 24.161 33.7304 24.161 32.6778V29.5995C24.161 29.0898 24.161 28.5866 24.161 28.0901C24.161 27.8386 24.161 27.6002 24.161 27.3421C24.179 27.0769 24.2559 26.8191 24.3861 26.5874C24.6767 26.1644 25.0804 25.8318 25.5512 25.6275C25.9749 25.3958 26.4118 25.2104 26.8288 25.0118L37.5864 21.0928H37.6459L45.6231 24.0718L47.7414 24.8794L48.2843 25.0913L48.4697 25.1773L48.2777 25.1177L47.7282 24.9258L45.5899 24.1645L37.5864 21.2583H37.6459L26.9149 25.2303C26.4978 25.4355 26.0609 25.6275 25.6505 25.8526C25.2299 26.0422 24.8702 26.3447 24.6111 26.7264C24.4212 27.1589 24.3525 27.6349 24.4125 28.1034V29.6127C24.4125 30.6256 24.4125 31.6583 24.4125 32.7043C24.4125 33.7502 24.4126 34.8227 24.4854 35.8951C24.793 40.4491 26.3532 44.8295 28.9936 48.5526C31.2258 51.7094 34.2515 54.2213 37.7651 55.8346H37.6658C40.0805 54.9502 42.2451 53.4942 43.9747 51.5912C45.5902 49.8599 46.9642 47.9181 48.0592 45.8185C49.844 42.333 50.7936 38.4802 50.833 34.5645C50.833 32.9095 50.833 31.42 50.833 30.1159C50.833 28.8117 50.9588 27.6665 50.5417 26.8522C50.245 26.2238 49.7297 25.7249 49.0919 25.4487C48.8801 25.3494 48.7146 25.2832 48.6021 25.2435L48.4564 25.1707Z" fill="#263238"/>
<path d="M28.4818 49.0157C28.4354 49.0157 28.4023 46.8311 28.4023 44.1368C28.4023 41.4424 28.4354 39.2578 28.4818 39.2578C28.5281 39.2578 28.5678 41.4424 28.5678 44.1368C28.5678 46.8311 28.5281 49.0157 28.4818 49.0157Z" fill="#FAFAFA"/>
<path d="M36.2673 44.19C36.1939 44.167 36.1262 44.1286 36.0687 44.0774C35.8967 43.9533 35.7468 43.8011 35.6252 43.6273C35.4136 43.3457 35.2667 43.0211 35.1949 42.6763C35.1231 42.3316 35.1281 41.9753 35.2097 41.6327C35.2912 41.2901 35.4472 40.9698 35.6666 40.6943C35.8861 40.4189 36.1635 40.1952 36.4792 40.0392C36.665 39.9436 36.8633 39.8745 37.0683 39.834C37.214 39.834 37.3 39.834 37.3 39.834C37.0345 39.9152 36.7774 40.0216 36.5321 40.1518C36.2435 40.3124 35.9916 40.5313 35.7923 40.7947C35.5931 41.0581 35.451 41.3602 35.375 41.6816C35.299 42.003 35.2908 42.3367 35.351 42.6615C35.4112 42.9862 35.5384 43.2948 35.7245 43.5677C35.8872 43.7904 36.0688 43.9986 36.2673 44.19Z" fill="#FAFAFA"/>
<mask id="path-6-inside-1_316_62572" fill="white">
<path d="M34.5858 45.0928L28.305 38.5299C28.2063 38.4094 28.1548 38.2545 28.1606 38.0959C28.1665 37.9374 28.2293 37.7871 28.3365 37.6749C28.4438 37.5627 28.5875 37.497 28.7391 37.4909C28.8907 37.4848 29.0388 37.5387 29.154 37.6419L34.5738 43.3104L45.1663 32.2442C45.2815 32.141 45.4297 32.0871 45.5812 32.0932C45.7328 32.0994 45.8765 32.1651 45.9838 32.2772C46.091 32.3894 46.1539 32.5398 46.1597 32.6983C46.1656 32.8568 46.114 33.0118 46.0154 33.1323L34.5858 45.0928Z"/>
</mask>
<path d="M34.5858 45.0928L27.3612 52.0069L34.5912 59.5615L41.8155 52.0016L34.5858 45.0928ZM28.305 38.5299L20.5677 44.8652L20.8128 45.1645L21.0804 45.4441L28.305 38.5299ZM29.154 37.6419L36.3819 30.7312L36.1144 30.4513L35.8259 30.193L29.154 37.6419ZM34.5738 43.3104L27.3459 50.221L34.5696 57.7764L41.7977 50.2251L34.5738 43.3104ZM45.1663 32.2442L38.4944 24.7953L38.2081 25.0518L37.9423 25.3294L45.1663 32.2442ZM46.0154 33.1323L53.2451 40.0411L53.5098 39.764L53.7526 39.4675L46.0154 33.1323ZM41.8104 38.1786L35.5295 31.6158L21.0804 45.4441L27.3612 52.0069L41.8104 38.1786ZM36.0422 32.1947C37.5185 33.9978 38.236 36.2384 38.1538 38.465L18.1674 37.7269C18.0735 40.2705 18.8941 42.8211 20.5677 44.8652L36.0422 32.1947ZM38.1538 38.465C38.0715 40.6924 37.189 42.8864 35.5644 44.5856L21.1086 30.7642C19.2696 32.6877 18.2614 35.1825 18.1674 37.7269L38.1538 38.465ZM35.5644 44.5856C33.9279 46.2972 31.6451 47.3817 29.1428 47.4827L28.3354 27.499C25.53 27.6124 22.9596 28.8282 21.1086 30.7642L35.5644 44.5856ZM29.1428 47.4827C26.6385 47.5839 24.2625 46.6854 22.4822 45.0908L35.8259 30.193C33.8152 28.392 31.1428 27.3856 28.3354 27.499L29.1428 47.4827ZM21.9262 44.5526L27.3459 50.221L41.8016 36.3997L36.3819 30.7312L21.9262 44.5526ZM41.7977 50.2251L52.3902 39.159L37.9423 25.3294L27.3498 36.3956L41.7977 50.2251ZM51.8381 39.6931C50.0578 41.2877 47.6818 42.1863 45.1776 42.0851L45.9849 22.1014C43.1775 21.988 40.5051 22.9944 38.4944 24.7953L51.8381 39.6931ZM45.1776 42.0851C42.6752 41.984 40.3924 40.8996 38.7559 39.1879L53.2117 25.3666C51.3607 23.4306 48.7903 22.2147 45.9849 22.1014L45.1776 42.0851ZM38.7559 39.1879C37.1313 37.4888 36.2488 35.2948 36.1665 33.0673L56.1529 32.3292C56.0589 29.7848 55.0507 27.2901 53.2117 25.3666L38.7559 39.1879ZM36.1665 33.0673C36.0843 30.8408 36.8018 28.6001 38.2781 26.7971L53.7526 39.4675C55.4262 37.4235 56.2468 34.8729 56.1529 32.3292L36.1665 33.0673ZM38.7856 26.2235L27.3561 38.184L41.8155 52.0016L53.2451 40.0411L38.7856 26.2235Z" fill="#00B9E3" mask="url(#path-6-inside-1_316_62572)"/>
</svg>
