<svg width="27" height="35" viewBox="0 0 27 35" fill="none" xmlns="http://www.w3.org/2000/svg">
<path d="M24.2973 4.07845L13.4471 0.106445L2.71609 4.01887C1.34575 4.68088 0.1409 5.08469 0.1409 6.39546V12.9228C0.11953 17.4937 1.34395 21.9839 3.68261 25.9113C5.98575 29.8381 9.43769 32.9643 13.5729 34.8681C17.962 33.4051 21.2389 29.5059 23.2447 26.1694C25.5846 22.2402 26.809 17.7474 26.7864 13.1743V7.30902C26.8415 6.55865 26.6181 5.8143 26.1589 5.21831C25.6997 4.62231 25.0369 4.21649 24.2973 4.07845Z" fill="#EBEBEB"/>
<path d="M24.2963 4.07793C24.5248 4.1305 24.7468 4.20821 24.9583 4.30963C25.6201 4.57331 26.1604 5.07348 26.4743 5.71307C26.6888 6.18028 26.7995 6.68846 26.7986 7.20258C26.7986 7.75866 26.7986 8.36107 26.7986 9.01645C26.7986 10.3405 26.7986 11.8101 26.7986 13.4651C26.7835 17.4266 25.8379 21.3291 24.0381 24.8582C22.9592 26.9739 21.5986 28.9336 19.9933 30.6838C18.2414 32.6208 16.0443 34.1022 13.5917 35H13.5454H13.4924C9.92988 33.3694 6.8641 30.8222 4.60835 27.6187C1.93673 23.8472 0.364587 19.408 0.067031 14.7957C-0.0124091 13.71 0.00082687 12.6376 0.00082687 11.585V8.50672C0.00082687 7.99698 0.00082687 7.49386 0.00082687 6.99736C0.00082687 6.7458 0.00082687 6.50747 0.00082687 6.24929C0.0188125 5.98413 0.095703 5.72631 0.225905 5.49461C0.516497 5.07164 0.92027 4.73899 1.39103 4.53471C1.81471 4.30301 2.25163 4.11766 2.66869 3.91906L13.4262 0H13.4858L21.4629 2.97901L23.5813 3.78665L24.1241 3.99849L24.3095 4.08456L24.1175 4.02497L23.5681 3.83299L21.4298 3.07169L13.4262 0.1655H13.4858L2.75475 4.13751C2.33769 4.34273 1.90077 4.53471 1.49033 4.75979C1.06978 4.94941 0.710009 5.2519 0.450983 5.63364C0.261016 6.06609 0.192369 6.54209 0.25239 7.0106V8.51995C0.25239 9.53281 0.25239 10.5655 0.25239 11.6115C0.25239 12.6575 0.252401 13.7299 0.325221 14.8024C0.632844 19.3563 2.19301 23.7367 4.83344 27.4598C7.06566 30.6166 10.0914 33.1285 13.605 34.7418H13.5056C15.9203 33.8574 18.0849 32.4014 19.8145 30.4984C21.43 28.7671 22.804 26.8253 23.8991 24.7257C25.6838 21.2403 26.6335 17.3874 26.6728 13.4717C26.6728 11.8167 26.6728 10.3272 26.6728 9.02308C26.6728 7.71894 26.7986 6.57368 26.3816 5.75942C26.0849 5.13099 25.5695 4.6321 24.9318 4.35597C24.7199 4.25667 24.5544 4.19047 24.4419 4.15075L24.2963 4.07793Z" fill="#263238"/>
<path d="M4.32162 27.9229C4.27528 27.9229 4.24219 25.7383 4.24219 23.044C4.24219 20.3496 4.27528 18.165 4.32162 18.165C4.36796 18.165 4.40769 20.3496 4.40769 23.044C4.40769 25.7383 4.36796 27.9229 4.32162 27.9229Z" fill="#FAFAFA"/>
<path d="M12.1072 23.0972C12.0337 23.0742 11.966 23.0358 11.9086 22.9846C11.7366 22.8605 11.5866 22.7083 11.465 22.5345C11.2535 22.253 11.1066 21.9283 11.0347 21.5836C10.9629 21.2388 10.968 20.8825 11.0495 20.5399C11.131 20.1974 11.2871 19.877 11.5065 19.6016C11.7259 19.3261 12.0033 19.1025 12.319 18.9464C12.5049 18.8508 12.7032 18.7818 12.9082 18.7412C13.0538 18.7412 13.1399 18.7412 13.1399 18.7412C12.8744 18.8225 12.6172 18.9289 12.372 19.059C12.0834 19.2196 11.8314 19.4386 11.6322 19.702C11.4329 19.9654 11.2908 20.2674 11.2148 20.5888C11.1388 20.9102 11.1307 21.244 11.1908 21.5687C11.251 21.8934 11.3782 22.2021 11.5643 22.4749C11.727 22.6976 11.9086 22.9058 12.1072 23.0972Z" fill="#FAFAFA"/>
<mask id="path-5-inside-1_203_20198" fill="white">
<path d="M10.4256 24L4.1448 17.4372C4.04615 17.3167 3.9946 17.1617 4.00045 17.0032C4.0063 16.8447 4.06913 16.6943 4.17638 16.5821C4.28362 16.47 4.42739 16.4042 4.57895 16.3981C4.7305 16.392 4.87869 16.4459 4.99389 16.5491L10.4136 22.2176L21.0061 11.1514C21.1213 11.0483 21.2695 10.9943 21.4211 11.0005C21.5726 11.0066 21.7164 11.0723 21.8236 11.1845C21.9309 11.2966 21.9937 11.447 21.9995 11.6055C22.0054 11.764 21.9539 11.919 21.8552 12.0395L10.4256 24Z"/>
</mask>
<path d="M10.4256 24L3.20106 30.9141L10.431 38.4687L17.6554 30.9088L10.4256 24ZM4.1448 17.4372L-3.59245 23.7724L-3.34732 24.0718L-3.07978 24.3513L4.1448 17.4372ZM4.99389 16.5491L12.2218 9.63842L11.9542 9.35855L11.6658 9.1002L4.99389 16.5491ZM10.4136 22.2176L3.1857 29.1283L10.4095 36.6836L17.6376 29.1324L10.4136 22.2176ZM21.0061 11.1514L14.3342 3.70255L14.0479 3.95899L13.7821 4.23666L21.0061 11.1514ZM21.8552 12.0395L29.0849 18.9483L29.3497 18.6712L29.5924 18.3747L21.8552 12.0395ZM17.6502 17.0859L11.3694 10.523L-3.07978 24.3513L3.20106 30.9141L17.6502 17.0859ZM11.8821 11.1019C13.3584 12.905 14.0759 15.1457 13.9936 17.3722L-5.99274 16.6341C-6.08667 19.1777 -5.2661 21.7283 -3.59245 23.7724L11.8821 11.1019ZM13.9936 17.3722C13.9114 19.5996 13.0289 21.7936 11.4043 23.4928L-3.05152 9.67144C-4.8906 11.5949 -5.89877 14.0897 -5.99274 16.6341L13.9936 17.3722ZM11.4043 23.4928C9.76776 25.2044 7.48492 26.2889 4.9826 26.39L4.17529 6.40627C1.36986 6.51961 -1.20051 7.73547 -3.05152 9.67144L11.4043 23.4928ZM4.9826 26.39C2.47833 26.4911 0.102338 25.5926 -1.67799 23.998L11.6658 9.1002C9.65504 7.29922 6.98268 6.29286 4.17529 6.40627L4.9826 26.39ZM-2.23401 23.4598L3.1857 29.1283L17.6415 15.3069L12.2218 9.63842L-2.23401 23.4598ZM17.6376 29.1324L28.2301 18.0662L13.7821 4.23666L3.18963 15.3028L17.6376 29.1324ZM27.678 18.6003C25.8977 20.1949 23.5217 21.0935 21.0174 20.9923L21.8247 1.00862C19.0173 0.895205 16.3449 1.90158 14.3342 3.70255L27.678 18.6003ZM21.0174 20.9923C18.5151 20.8912 16.2322 19.8068 14.5957 18.0952L29.0515 4.27379C27.2005 2.33782 24.6301 1.12196 21.8247 1.00862L21.0174 20.9923ZM14.5957 18.0952C12.9711 16.396 12.0886 14.202 12.0064 11.9746L31.9927 11.2365C31.8988 8.69203 30.8906 6.19728 29.0515 4.27379L14.5957 18.0952ZM12.0064 11.9746C11.9241 9.74799 12.6416 7.50734 14.1179 5.70429L29.5924 18.3747C31.2661 16.3307 32.0867 13.7801 31.9927 11.2365L12.0064 11.9746ZM14.6255 5.13073L3.19593 17.0912L17.6554 30.9088L29.0849 18.9483L14.6255 5.13073Z" fill="#00B9E3" mask="url(#path-5-inside-1_203_20198)"/>
</svg>
