<svg width="20" height="20" viewBox="0 0 20 20" fill="none" xmlns="http://www.w3.org/2000/svg">
<path d="M17.7778 7V5C17.7778 4.46957 17.5437 3.96086 17.1269 3.58579C16.7102 3.21071 16.1449 3 15.5556 3H14.4444V0H12.2222V3H11.1111C10.5217 3 9.95651 3.21071 9.53976 3.58579C9.12302 3.96086 8.88889 4.46957 8.88889 5V7C8.29952 7 7.73429 7.21071 7.31754 7.58579C6.90079 7.96086 6.66667 8.46957 6.66667 9V10H2.22222C1.63285 10 1.06762 10.2107 0.650874 10.5858C0.234126 10.9609 0 11.4696 0 12V20H3.33333V18H5.55556V20H10V18H12.2222V20H14.4444V18H16.6667V20H20V9C20 8.46957 19.7659 7.96086 19.3491 7.58579C18.9324 7.21071 18.3671 7 17.7778 7ZM5.55556 16H3.33333V14H5.55556V16ZM12.2222 16H10V14H12.2222V16ZM12.2222 12H10V10H12.2222V12ZM11.1111 7V5H15.5556V7H11.1111ZM16.6667 16H14.4444V14H16.6667V16ZM16.6667 12H14.4444V10H16.6667V12Z" fill="#00B9E3"/>
</svg>
