<svg width="18" height="24" viewBox="0 0 18 24" fill="none" xmlns="http://www.w3.org/2000/svg">
<path fill-rule="evenodd" clip-rule="evenodd" d="M2.99997 0C2.20433 0 1.44128 0.316068 0.878672 0.878672C0.316068 1.44128 0 2.20433 0 2.99997V20.9998C0 21.7955 0.316068 22.5585 0.878672 23.1211C1.44128 23.6837 2.20433 23.9998 2.99997 23.9998H14.9999C15.7955 23.9998 16.5586 23.6837 17.1212 23.1211C17.6838 22.5585 17.9998 21.7955 17.9998 20.9998V8.12093C17.9997 7.32535 17.6835 6.56242 17.1209 5.99995L11.9999 0.878993C11.4374 0.316349 10.6745 0.000169911 9.87892 0H2.99997ZM5.99995 14.9999C5.99995 14.6021 5.84192 14.2205 5.56061 13.9392C5.27931 13.6579 4.89778 13.4999 4.49996 13.4999C4.10214 13.4999 3.72061 13.6579 3.43931 13.9392C3.15801 14.2205 2.99997 14.6021 2.99997 14.9999V19.4998C2.99997 19.8977 3.15801 20.2792 3.43931 20.5605C3.72061 20.8418 4.10214 20.9998 4.49996 20.9998C4.89778 20.9998 5.27931 20.8418 5.56061 20.5605C5.84192 20.2792 5.99995 19.8977 5.99995 19.4998V14.9999ZM8.99992 10.4999C9.39774 10.4999 9.77927 10.6579 10.0606 10.9392C10.3419 11.2205 10.4999 11.6021 10.4999 11.9999V19.4998C10.4999 19.8977 10.3419 20.2792 10.0606 20.5605C9.77927 20.8418 9.39774 20.9998 8.99992 20.9998C8.6021 20.9998 8.22058 20.8418 7.93927 20.5605C7.65797 20.2792 7.49994 19.8977 7.49994 19.4998V11.9999C7.49994 11.6021 7.65797 11.2205 7.93927 10.9392C8.22058 10.6579 8.6021 10.4999 8.99992 10.4999ZM14.9999 8.99992C14.9999 8.6021 14.8418 8.22058 14.5605 7.93927C14.2792 7.65797 13.8977 7.49994 13.4999 7.49994C13.1021 7.49994 12.7205 7.65797 12.4392 7.93927C12.1579 8.22058 11.9999 8.6021 11.9999 8.99992V19.4998C11.9999 19.8977 12.1579 20.2792 12.4392 20.5605C12.7205 20.8418 13.1021 20.9998 13.4999 20.9998C13.8977 20.9998 14.2792 20.8418 14.5605 20.5605C14.8418 20.2792 14.9999 19.8977 14.9999 19.4998V8.99992Z" fill="#606970"/>
</svg>
