<svg width="328" height="33" viewBox="0 0 328 33" fill="none" xmlns="http://www.w3.org/2000/svg">
<g clip-path="url(#clip0_203_20177)">
<path d="M153.023 13.8071H151.912V13.75H139.499V19.25H147.294C146.157 22.4517 143.101 24.75 139.499 24.75C134.929 24.75 131.224 21.0561 131.224 16.5C131.224 11.9439 134.929 8.25 139.499 8.25C141.609 8.25 143.528 9.04337 144.989 10.3393L148.89 6.45012C146.427 4.16144 143.132 2.75 139.499 2.75C131.882 2.75 125.707 8.90656 125.707 16.5C125.707 24.0934 131.882 30.25 139.499 30.25C147.116 30.25 153.291 24.0934 153.291 16.5C153.291 15.5781 153.196 14.6781 153.023 13.8071Z" fill="#FFC107"/>
<path d="M127.297 10.1001L131.828 13.4131C133.054 10.3868 136.024 8.25 139.499 8.25C141.608 8.25 143.527 9.04337 144.989 10.3393L148.89 6.45012C146.426 4.16144 143.132 2.75 139.499 2.75C134.201 2.75 129.607 5.73169 127.297 10.1001Z" fill="#FF3D00"/>
<path d="M139.497 30.25C143.06 30.25 146.297 28.8908 148.744 26.6805L144.475 23.0794C143.044 24.1645 141.295 24.7514 139.497 24.75C135.91 24.75 132.864 22.4695 131.716 19.2871L127.219 22.7418C129.501 27.1947 134.137 30.25 139.497 30.25Z" fill="#4CAF50"/>
<path d="M153.024 13.8071H151.913V13.75H139.5V19.25H147.295C146.751 20.7738 145.771 22.1053 144.476 23.0801L144.478 23.0787L148.747 26.6798C148.445 26.9534 153.292 23.375 153.292 16.5C153.292 15.5781 153.197 14.6781 153.024 13.8071Z" fill="#1976D2"/>
</g>
<g clip-path="url(#clip1_203_20177)">
<path fill-rule="evenodd" clip-rule="evenodd" d="M174.801 16.5768C174.801 23.4128 179.766 29.0973 186.259 30.25V20.3191H182.822V16.5H186.259V13.4441C186.259 10.0066 188.474 8.0976 191.607 8.0976C192.599 8.0976 193.669 8.25 194.662 8.4024V11.9167H192.905C191.224 11.9167 190.842 12.7566 190.842 13.8268V16.5H194.509L193.898 20.3191H190.842V30.25C197.336 29.0973 202.301 23.414 202.301 16.5768C202.301 8.97188 196.113 2.75 188.551 2.75C180.988 2.75 174.801 8.97188 174.801 16.5768Z" fill="#1976D2"/>
</g>
<defs>
<clipPath id="clip0_203_20177">
<rect width="33.1009" height="33" fill="white" transform="translate(122.949)"/>
</clipPath>
<clipPath id="clip1_203_20177">
<rect width="27.5" height="27.5" fill="white" transform="translate(174.801 2.75)"/>
</clipPath>
</defs>
</svg>
