<svg width="11" height="19" viewBox="0 0 11 19" fill="none" xmlns="http://www.w3.org/2000/svg">
<path d="M5.12356 6.85599C7.01366 6.85599 8.5478 5.32186 8.5478 3.42925C8.5478 1.53664 7.01116 0 5.12231 0C4.21292 0.000332198 3.34087 0.361734 2.69783 1.00477C2.05479 1.64781 1.69339 2.51986 1.69306 3.42925C1.69372 4.33864 2.05544 5.21056 2.69872 5.85336C3.34199 6.49616 4.21417 6.85599 5.12356 6.85599ZM9.29732 8.93285C8.8085 8.04921 8.20939 7.33228 7.60777 6.83093C6.90587 7.34481 6.05357 7.65816 5.12231 7.65816C4.1898 7.65816 3.33499 7.34481 2.63686 6.83093C2.03523 7.33228 1.43612 8.04921 0.944791 8.93285C-0.195786 10.9859 -0.321123 13.0916 0.664035 13.638C1.10272 13.8887 1.56647 13.7007 2.04275 13.242C1.95559 13.7373 1.91198 14.2393 1.9124 14.7423C1.9124 17.0986 2.82486 19 3.94915 19C4.62597 19 4.96439 18.3069 5.12482 17.2478C5.28525 18.3006 5.62116 18.9987 6.29548 18.9987C7.41475 18.9987 8.33473 17.0961 8.33473 14.7423C8.33473 14.2158 8.28459 13.7095 8.19936 13.2432C8.67941 13.7032 9.1419 13.895 9.58309 13.6405C10.5632 13.0966 10.4354 10.9896 9.29732 8.93661V8.93285Z" fill="#00B9E3"/>
</svg>
