<svg width="17" height="19" viewBox="0 0 17 19" fill="none" xmlns="http://www.w3.org/2000/svg">
<path d="M15.3 5.7H1.7V3.8H15.3V5.7ZM13.6 0H3.4V1.9H13.6V0ZM17 9.5V17.1C17 17.6039 16.8209 18.0872 16.5021 18.4435C16.1833 18.7998 15.7509 19 15.3 19H1.7C1.24955 18.9985 0.817925 18.7978 0.499405 18.4418C0.180884 18.0858 0.00134532 17.6034 0 17.1V9.5C0.00134532 8.99655 0.180884 8.51415 0.499405 8.15816C0.817925 7.80216 1.24955 7.6015 1.7 7.6H15.3C15.7505 7.6015 16.1821 7.80216 16.5006 8.15816C16.8191 8.51415 16.9987 8.99655 17 9.5ZM10.1379 14.2899L12.1125 12.4032L9.51235 12.16L8.5 9.5L7.48765 12.16L4.8875 12.4032L6.86205 14.2899L6.26705 17.1L8.5 15.6066L10.733 17.1L10.1379 14.2899Z" fill="#606970"/>
</svg>
